<?xml version="1.0" encoding="utf-8" standalone="no"?>
<!DOCTYPE svg PUBLIC "-//W3C//DTD SVG 1.1//EN"
  "http://www.w3.org/Graphics/SVG/1.1/DTD/svg11.dtd">
<!-- Created with matplotlib (https://matplotlib.org/) -->
<svg height="667.476708pt" version="1.1" viewBox="0 0 1080 667.476708" width="1080pt" xmlns="http://www.w3.org/2000/svg" xmlns:xlink="http://www.w3.org/1999/xlink">
 <defs>
  <style type="text/css">
*{stroke-linecap:butt;stroke-linejoin:round;white-space:pre;}
  </style>
 </defs>
 <g id="figure_1">
  <g id="patch_1">
   <path d="M 0 667.476708 
L 1080 667.476708 
L 1080 0 
L 0 0 
z
" style="fill:#ffffff;"/>
  </g>
  <g id="axes_1">
   <g id="patch_2">
    <path d="M 136.365 565.736708 
L 1026.6975 565.736708 
L 1026.6975 39.74 
L 136.365 39.74 
z
" style="fill:#ffffff;"/>
   </g>
   <g id="matplotlib.axis_1">
    <g id="xtick_1">
     <g id="line2d_1">
      <defs>
       <path d="M 0 0 
L 0 12 
" id="m827ed882c8" style="stroke:#000000;stroke-width:0.8;"/>
      </defs>
      <g>
       <use style="stroke:#000000;stroke-width:0.8;" x="136.365" xlink:href="#m827ed882c8" y="565.736708"/>
      </g>
     </g>
     <g id="text_1">
      <!-- 0 -->
      <defs>
       <path d="M 31.78125 66.40625 
Q 24.171875 66.40625 20.328125 58.90625 
Q 16.5 51.421875 16.5 36.375 
Q 16.5 21.390625 20.328125 13.890625 
Q 24.171875 6.390625 31.78125 6.390625 
Q 39.453125 6.390625 43.28125 13.890625 
Q 47.125 21.390625 47.125 36.375 
Q 47.125 51.421875 43.28125 58.90625 
Q 39.453125 66.40625 31.78125 66.40625 
z
M 31.78125 74.21875 
Q 44.046875 74.21875 50.515625 64.515625 
Q 56.984375 54.828125 56.984375 36.375 
Q 56.984375 17.96875 50.515625 8.265625 
Q 44.046875 -1.421875 31.78125 -1.421875 
Q 19.53125 -1.421875 13.0625 8.265625 
Q 6.59375 17.96875 6.59375 36.375 
Q 6.59375 54.828125 13.0625 64.515625 
Q 19.53125 74.21875 31.78125 74.21875 
z
" id="DejaVuSans-48"/>
      </defs>
      <g transform="translate(128.73 599.472958)scale(0.24 -0.24)">
       <use xlink:href="#DejaVuSans-48"/>
      </g>
     </g>
    </g>
    <g id="xtick_2">
     <g id="line2d_2">
      <g>
       <use style="stroke:#000000;stroke-width:0.8;" x="314.4315" xlink:href="#m827ed882c8" y="565.736708"/>
      </g>
     </g>
     <g id="text_2">
      <!-- 100 -->
      <defs>
       <path d="M 12.40625 8.296875 
L 28.515625 8.296875 
L 28.515625 63.921875 
L 10.984375 60.40625 
L 10.984375 69.390625 
L 28.421875 72.90625 
L 38.28125 72.90625 
L 38.28125 8.296875 
L 54.390625 8.296875 
L 54.390625 0 
L 12.40625 0 
z
" id="DejaVuSans-49"/>
      </defs>
      <g transform="translate(291.5265 599.472958)scale(0.24 -0.24)">
       <use xlink:href="#DejaVuSans-49"/>
       <use x="63.623047" xlink:href="#DejaVuSans-48"/>
       <use x="127.246094" xlink:href="#DejaVuSans-48"/>
      </g>
     </g>
    </g>
    <g id="xtick_3">
     <g id="line2d_3">
      <g>
       <use style="stroke:#000000;stroke-width:0.8;" x="492.498" xlink:href="#m827ed882c8" y="565.736708"/>
      </g>
     </g>
     <g id="text_3">
      <!-- 200 -->
      <defs>
       <path d="M 19.1875 8.296875 
L 53.609375 8.296875 
L 53.609375 0 
L 7.328125 0 
L 7.328125 8.296875 
Q 12.9375 14.109375 22.625 23.890625 
Q 32.328125 33.6875 34.8125 36.53125 
Q 39.546875 41.84375 41.421875 45.53125 
Q 43.3125 49.21875 43.3125 52.78125 
Q 43.3125 58.59375 39.234375 62.25 
Q 35.15625 65.921875 28.609375 65.921875 
Q 23.96875 65.921875 18.8125 64.3125 
Q 13.671875 62.703125 7.8125 59.421875 
L 7.8125 69.390625 
Q 13.765625 71.78125 18.9375 73 
Q 24.125 74.21875 28.421875 74.21875 
Q 39.75 74.21875 46.484375 68.546875 
Q 53.21875 62.890625 53.21875 53.421875 
Q 53.21875 48.921875 51.53125 44.890625 
Q 49.859375 40.875 45.40625 35.40625 
Q 44.1875 33.984375 37.640625 27.21875 
Q 31.109375 20.453125 19.1875 8.296875 
z
" id="DejaVuSans-50"/>
      </defs>
      <g transform="translate(469.593 599.472958)scale(0.24 -0.24)">
       <use xlink:href="#DejaVuSans-50"/>
       <use x="63.623047" xlink:href="#DejaVuSans-48"/>
       <use x="127.246094" xlink:href="#DejaVuSans-48"/>
      </g>
     </g>
    </g>
    <g id="xtick_4">
     <g id="line2d_4">
      <g>
       <use style="stroke:#000000;stroke-width:0.8;" x="670.5645" xlink:href="#m827ed882c8" y="565.736708"/>
      </g>
     </g>
     <g id="text_4">
      <!-- 300 -->
      <defs>
       <path d="M 40.578125 39.3125 
Q 47.65625 37.796875 51.625 33 
Q 55.609375 28.21875 55.609375 21.1875 
Q 55.609375 10.40625 48.1875 4.484375 
Q 40.765625 -1.421875 27.09375 -1.421875 
Q 22.515625 -1.421875 17.65625 -0.515625 
Q 12.796875 0.390625 7.625 2.203125 
L 7.625 11.71875 
Q 11.71875 9.328125 16.59375 8.109375 
Q 21.484375 6.890625 26.8125 6.890625 
Q 36.078125 6.890625 40.9375 10.546875 
Q 45.796875 14.203125 45.796875 21.1875 
Q 45.796875 27.640625 41.28125 31.265625 
Q 36.765625 34.90625 28.71875 34.90625 
L 20.21875 34.90625 
L 20.21875 43.015625 
L 29.109375 43.015625 
Q 36.375 43.015625 40.234375 45.921875 
Q 44.09375 48.828125 44.09375 54.296875 
Q 44.09375 59.90625 40.109375 62.90625 
Q 36.140625 65.921875 28.71875 65.921875 
Q 24.65625 65.921875 20.015625 65.03125 
Q 15.375 64.15625 9.8125 62.3125 
L 9.8125 71.09375 
Q 15.4375 72.65625 20.34375 73.4375 
Q 25.25 74.21875 29.59375 74.21875 
Q 40.828125 74.21875 47.359375 69.109375 
Q 53.90625 64.015625 53.90625 55.328125 
Q 53.90625 49.265625 50.4375 45.09375 
Q 46.96875 40.921875 40.578125 39.3125 
z
" id="DejaVuSans-51"/>
      </defs>
      <g transform="translate(647.6595 599.472958)scale(0.24 -0.24)">
       <use xlink:href="#DejaVuSans-51"/>
       <use x="63.623047" xlink:href="#DejaVuSans-48"/>
       <use x="127.246094" xlink:href="#DejaVuSans-48"/>
      </g>
     </g>
    </g>
    <g id="xtick_5">
     <g id="line2d_5">
      <g>
       <use style="stroke:#000000;stroke-width:0.8;" x="848.631" xlink:href="#m827ed882c8" y="565.736708"/>
      </g>
     </g>
     <g id="text_5">
      <!-- 400 -->
      <defs>
       <path d="M 37.796875 64.3125 
L 12.890625 25.390625 
L 37.796875 25.390625 
z
M 35.203125 72.90625 
L 47.609375 72.90625 
L 47.609375 25.390625 
L 58.015625 25.390625 
L 58.015625 17.1875 
L 47.609375 17.1875 
L 47.609375 0 
L 37.796875 0 
L 37.796875 17.1875 
L 4.890625 17.1875 
L 4.890625 26.703125 
z
" id="DejaVuSans-52"/>
      </defs>
      <g transform="translate(825.726 599.472958)scale(0.24 -0.24)">
       <use xlink:href="#DejaVuSans-52"/>
       <use x="63.623047" xlink:href="#DejaVuSans-48"/>
       <use x="127.246094" xlink:href="#DejaVuSans-48"/>
      </g>
     </g>
    </g>
    <g id="xtick_6">
     <g id="line2d_6">
      <g>
       <use style="stroke:#000000;stroke-width:0.8;" x="1026.6975" xlink:href="#m827ed882c8" y="565.736708"/>
      </g>
     </g>
     <g id="text_6">
      <!-- 500 -->
      <defs>
       <path d="M 10.796875 72.90625 
L 49.515625 72.90625 
L 49.515625 64.59375 
L 19.828125 64.59375 
L 19.828125 46.734375 
Q 21.96875 47.46875 24.109375 47.828125 
Q 26.265625 48.1875 28.421875 48.1875 
Q 40.625 48.1875 47.75 41.5 
Q 54.890625 34.8125 54.890625 23.390625 
Q 54.890625 11.625 47.5625 5.09375 
Q 40.234375 -1.421875 26.90625 -1.421875 
Q 22.3125 -1.421875 17.546875 -0.640625 
Q 12.796875 0.140625 7.71875 1.703125 
L 7.71875 11.625 
Q 12.109375 9.234375 16.796875 8.0625 
Q 21.484375 6.890625 26.703125 6.890625 
Q 35.15625 6.890625 40.078125 11.328125 
Q 45.015625 15.765625 45.015625 23.390625 
Q 45.015625 31 40.078125 35.4375 
Q 35.15625 39.890625 26.703125 39.890625 
Q 22.75 39.890625 18.8125 39.015625 
Q 14.890625 38.140625 10.796875 36.28125 
z
" id="DejaVuSans-53"/>
      </defs>
      <g transform="translate(1003.7925 599.472958)scale(0.24 -0.24)">
       <use xlink:href="#DejaVuSans-53"/>
       <use x="63.623047" xlink:href="#DejaVuSans-48"/>
       <use x="127.246094" xlink:href="#DejaVuSans-48"/>
      </g>
     </g>
    </g>
    <g id="xtick_7">
     <g id="line2d_7">
      <defs>
       <path d="M 0 0 
L 0 8 
" id="m65cee2c7e4" style="stroke:#000000;stroke-width:0.6;"/>
      </defs>
      <g>
       <use style="stroke:#000000;stroke-width:0.6;" x="154.17165" xlink:href="#m65cee2c7e4" y="565.736708"/>
      </g>
     </g>
    </g>
    <g id="xtick_8">
     <g id="line2d_8">
      <g>
       <use style="stroke:#000000;stroke-width:0.6;" x="171.9783" xlink:href="#m65cee2c7e4" y="565.736708"/>
      </g>
     </g>
    </g>
    <g id="xtick_9">
     <g id="line2d_9">
      <g>
       <use style="stroke:#000000;stroke-width:0.6;" x="189.78495" xlink:href="#m65cee2c7e4" y="565.736708"/>
      </g>
     </g>
    </g>
    <g id="xtick_10">
     <g id="line2d_10">
      <g>
       <use style="stroke:#000000;stroke-width:0.6;" x="207.5916" xlink:href="#m65cee2c7e4" y="565.736708"/>
      </g>
     </g>
    </g>
    <g id="xtick_11">
     <g id="line2d_11">
      <g>
       <use style="stroke:#000000;stroke-width:0.6;" x="225.39825" xlink:href="#m65cee2c7e4" y="565.736708"/>
      </g>
     </g>
    </g>
    <g id="xtick_12">
     <g id="line2d_12">
      <g>
       <use style="stroke:#000000;stroke-width:0.6;" x="243.2049" xlink:href="#m65cee2c7e4" y="565.736708"/>
      </g>
     </g>
    </g>
    <g id="xtick_13">
     <g id="line2d_13">
      <g>
       <use style="stroke:#000000;stroke-width:0.6;" x="261.01155" xlink:href="#m65cee2c7e4" y="565.736708"/>
      </g>
     </g>
    </g>
    <g id="xtick_14">
     <g id="line2d_14">
      <g>
       <use style="stroke:#000000;stroke-width:0.6;" x="278.8182" xlink:href="#m65cee2c7e4" y="565.736708"/>
      </g>
     </g>
    </g>
    <g id="xtick_15">
     <g id="line2d_15">
      <g>
       <use style="stroke:#000000;stroke-width:0.6;" x="296.62485" xlink:href="#m65cee2c7e4" y="565.736708"/>
      </g>
     </g>
    </g>
    <g id="xtick_16">
     <g id="line2d_16">
      <g>
       <use style="stroke:#000000;stroke-width:0.6;" x="332.23815" xlink:href="#m65cee2c7e4" y="565.736708"/>
      </g>
     </g>
    </g>
    <g id="xtick_17">
     <g id="line2d_17">
      <g>
       <use style="stroke:#000000;stroke-width:0.6;" x="350.0448" xlink:href="#m65cee2c7e4" y="565.736708"/>
      </g>
     </g>
    </g>
    <g id="xtick_18">
     <g id="line2d_18">
      <g>
       <use style="stroke:#000000;stroke-width:0.6;" x="367.85145" xlink:href="#m65cee2c7e4" y="565.736708"/>
      </g>
     </g>
    </g>
    <g id="xtick_19">
     <g id="line2d_19">
      <g>
       <use style="stroke:#000000;stroke-width:0.6;" x="385.6581" xlink:href="#m65cee2c7e4" y="565.736708"/>
      </g>
     </g>
    </g>
    <g id="xtick_20">
     <g id="line2d_20">
      <g>
       <use style="stroke:#000000;stroke-width:0.6;" x="403.46475" xlink:href="#m65cee2c7e4" y="565.736708"/>
      </g>
     </g>
    </g>
    <g id="xtick_21">
     <g id="line2d_21">
      <g>
       <use style="stroke:#000000;stroke-width:0.6;" x="421.2714" xlink:href="#m65cee2c7e4" y="565.736708"/>
      </g>
     </g>
    </g>
    <g id="xtick_22">
     <g id="line2d_22">
      <g>
       <use style="stroke:#000000;stroke-width:0.6;" x="439.07805" xlink:href="#m65cee2c7e4" y="565.736708"/>
      </g>
     </g>
    </g>
    <g id="xtick_23">
     <g id="line2d_23">
      <g>
       <use style="stroke:#000000;stroke-width:0.6;" x="456.8847" xlink:href="#m65cee2c7e4" y="565.736708"/>
      </g>
     </g>
    </g>
    <g id="xtick_24">
     <g id="line2d_24">
      <g>
       <use style="stroke:#000000;stroke-width:0.6;" x="474.69135" xlink:href="#m65cee2c7e4" y="565.736708"/>
      </g>
     </g>
    </g>
    <g id="xtick_25">
     <g id="line2d_25">
      <g>
       <use style="stroke:#000000;stroke-width:0.6;" x="510.30465" xlink:href="#m65cee2c7e4" y="565.736708"/>
      </g>
     </g>
    </g>
    <g id="xtick_26">
     <g id="line2d_26">
      <g>
       <use style="stroke:#000000;stroke-width:0.6;" x="528.1113" xlink:href="#m65cee2c7e4" y="565.736708"/>
      </g>
     </g>
    </g>
    <g id="xtick_27">
     <g id="line2d_27">
      <g>
       <use style="stroke:#000000;stroke-width:0.6;" x="545.91795" xlink:href="#m65cee2c7e4" y="565.736708"/>
      </g>
     </g>
    </g>
    <g id="xtick_28">
     <g id="line2d_28">
      <g>
       <use style="stroke:#000000;stroke-width:0.6;" x="563.7246" xlink:href="#m65cee2c7e4" y="565.736708"/>
      </g>
     </g>
    </g>
    <g id="xtick_29">
     <g id="line2d_29">
      <g>
       <use style="stroke:#000000;stroke-width:0.6;" x="581.53125" xlink:href="#m65cee2c7e4" y="565.736708"/>
      </g>
     </g>
    </g>
    <g id="xtick_30">
     <g id="line2d_30">
      <g>
       <use style="stroke:#000000;stroke-width:0.6;" x="599.3379" xlink:href="#m65cee2c7e4" y="565.736708"/>
      </g>
     </g>
    </g>
    <g id="xtick_31">
     <g id="line2d_31">
      <g>
       <use style="stroke:#000000;stroke-width:0.6;" x="617.14455" xlink:href="#m65cee2c7e4" y="565.736708"/>
      </g>
     </g>
    </g>
    <g id="xtick_32">
     <g id="line2d_32">
      <g>
       <use style="stroke:#000000;stroke-width:0.6;" x="634.9512" xlink:href="#m65cee2c7e4" y="565.736708"/>
      </g>
     </g>
    </g>
    <g id="xtick_33">
     <g id="line2d_33">
      <g>
       <use style="stroke:#000000;stroke-width:0.6;" x="652.75785" xlink:href="#m65cee2c7e4" y="565.736708"/>
      </g>
     </g>
    </g>
    <g id="xtick_34">
     <g id="line2d_34">
      <g>
       <use style="stroke:#000000;stroke-width:0.6;" x="688.37115" xlink:href="#m65cee2c7e4" y="565.736708"/>
      </g>
     </g>
    </g>
    <g id="xtick_35">
     <g id="line2d_35">
      <g>
       <use style="stroke:#000000;stroke-width:0.6;" x="706.1778" xlink:href="#m65cee2c7e4" y="565.736708"/>
      </g>
     </g>
    </g>
    <g id="xtick_36">
     <g id="line2d_36">
      <g>
       <use style="stroke:#000000;stroke-width:0.6;" x="723.98445" xlink:href="#m65cee2c7e4" y="565.736708"/>
      </g>
     </g>
    </g>
    <g id="xtick_37">
     <g id="line2d_37">
      <g>
       <use style="stroke:#000000;stroke-width:0.6;" x="741.7911" xlink:href="#m65cee2c7e4" y="565.736708"/>
      </g>
     </g>
    </g>
    <g id="xtick_38">
     <g id="line2d_38">
      <g>
       <use style="stroke:#000000;stroke-width:0.6;" x="759.59775" xlink:href="#m65cee2c7e4" y="565.736708"/>
      </g>
     </g>
    </g>
    <g id="xtick_39">
     <g id="line2d_39">
      <g>
       <use style="stroke:#000000;stroke-width:0.6;" x="777.4044" xlink:href="#m65cee2c7e4" y="565.736708"/>
      </g>
     </g>
    </g>
    <g id="xtick_40">
     <g id="line2d_40">
      <g>
       <use style="stroke:#000000;stroke-width:0.6;" x="795.21105" xlink:href="#m65cee2c7e4" y="565.736708"/>
      </g>
     </g>
    </g>
    <g id="xtick_41">
     <g id="line2d_41">
      <g>
       <use style="stroke:#000000;stroke-width:0.6;" x="813.0177" xlink:href="#m65cee2c7e4" y="565.736708"/>
      </g>
     </g>
    </g>
    <g id="xtick_42">
     <g id="line2d_42">
      <g>
       <use style="stroke:#000000;stroke-width:0.6;" x="830.82435" xlink:href="#m65cee2c7e4" y="565.736708"/>
      </g>
     </g>
    </g>
    <g id="xtick_43">
     <g id="line2d_43">
      <g>
       <use style="stroke:#000000;stroke-width:0.6;" x="866.43765" xlink:href="#m65cee2c7e4" y="565.736708"/>
      </g>
     </g>
    </g>
    <g id="xtick_44">
     <g id="line2d_44">
      <g>
       <use style="stroke:#000000;stroke-width:0.6;" x="884.2443" xlink:href="#m65cee2c7e4" y="565.736708"/>
      </g>
     </g>
    </g>
    <g id="xtick_45">
     <g id="line2d_45">
      <g>
       <use style="stroke:#000000;stroke-width:0.6;" x="902.05095" xlink:href="#m65cee2c7e4" y="565.736708"/>
      </g>
     </g>
    </g>
    <g id="xtick_46">
     <g id="line2d_46">
      <g>
       <use style="stroke:#000000;stroke-width:0.6;" x="919.8576" xlink:href="#m65cee2c7e4" y="565.736708"/>
      </g>
     </g>
    </g>
    <g id="xtick_47">
     <g id="line2d_47">
      <g>
       <use style="stroke:#000000;stroke-width:0.6;" x="937.66425" xlink:href="#m65cee2c7e4" y="565.736708"/>
      </g>
     </g>
    </g>
    <g id="xtick_48">
     <g id="line2d_48">
      <g>
       <use style="stroke:#000000;stroke-width:0.6;" x="955.4709" xlink:href="#m65cee2c7e4" y="565.736708"/>
      </g>
     </g>
    </g>
    <g id="xtick_49">
     <g id="line2d_49">
      <g>
       <use style="stroke:#000000;stroke-width:0.6;" x="973.27755" xlink:href="#m65cee2c7e4" y="565.736708"/>
      </g>
     </g>
    </g>
    <g id="xtick_50">
     <g id="line2d_50">
      <g>
       <use style="stroke:#000000;stroke-width:0.6;" x="991.0842" xlink:href="#m65cee2c7e4" y="565.736708"/>
      </g>
     </g>
    </g>
    <g id="xtick_51">
     <g id="line2d_51">
      <g>
       <use style="stroke:#000000;stroke-width:0.6;" x="1008.89085" xlink:href="#m65cee2c7e4" y="565.736708"/>
      </g>
     </g>
    </g>
    <g id="text_7">
     <!-- Time [s] -->
     <defs>
      <path d="M -0.296875 72.90625 
L 61.375 72.90625 
L 61.375 64.59375 
L 35.5 64.59375 
L 35.5 0 
L 25.59375 0 
L 25.59375 64.59375 
L -0.296875 64.59375 
z
" id="DejaVuSans-84"/>
      <path d="M 9.421875 54.6875 
L 18.40625 54.6875 
L 18.40625 0 
L 9.421875 0 
z
M 9.421875 75.984375 
L 18.40625 75.984375 
L 18.40625 64.59375 
L 9.421875 64.59375 
z
" id="DejaVuSans-105"/>
      <path d="M 52 44.1875 
Q 55.375 50.25 60.0625 53.125 
Q 64.75 56 71.09375 56 
Q 79.640625 56 84.28125 50.015625 
Q 88.921875 44.046875 88.921875 33.015625 
L 88.921875 0 
L 79.890625 0 
L 79.890625 32.71875 
Q 79.890625 40.578125 77.09375 44.375 
Q 74.3125 48.1875 68.609375 48.1875 
Q 61.625 48.1875 57.5625 43.546875 
Q 53.515625 38.921875 53.515625 30.90625 
L 53.515625 0 
L 44.484375 0 
L 44.484375 32.71875 
Q 44.484375 40.625 41.703125 44.40625 
Q 38.921875 48.1875 33.109375 48.1875 
Q 26.21875 48.1875 22.15625 43.53125 
Q 18.109375 38.875 18.109375 30.90625 
L 18.109375 0 
L 9.078125 0 
L 9.078125 54.6875 
L 18.109375 54.6875 
L 18.109375 46.1875 
Q 21.1875 51.21875 25.484375 53.609375 
Q 29.78125 56 35.6875 56 
Q 41.65625 56 45.828125 52.96875 
Q 50 49.953125 52 44.1875 
z
" id="DejaVuSans-109"/>
      <path d="M 56.203125 29.59375 
L 56.203125 25.203125 
L 14.890625 25.203125 
Q 15.484375 15.921875 20.484375 11.0625 
Q 25.484375 6.203125 34.421875 6.203125 
Q 39.59375 6.203125 44.453125 7.46875 
Q 49.3125 8.734375 54.109375 11.28125 
L 54.109375 2.78125 
Q 49.265625 0.734375 44.1875 -0.34375 
Q 39.109375 -1.421875 33.890625 -1.421875 
Q 20.796875 -1.421875 13.15625 6.1875 
Q 5.515625 13.8125 5.515625 26.8125 
Q 5.515625 40.234375 12.765625 48.109375 
Q 20.015625 56 32.328125 56 
Q 43.359375 56 49.78125 48.890625 
Q 56.203125 41.796875 56.203125 29.59375 
z
M 47.21875 32.234375 
Q 47.125 39.59375 43.09375 43.984375 
Q 39.0625 48.390625 32.421875 48.390625 
Q 24.90625 48.390625 20.390625 44.140625 
Q 15.875 39.890625 15.1875 32.171875 
z
" id="DejaVuSans-101"/>
      <path id="DejaVuSans-32"/>
      <path d="M 8.59375 75.984375 
L 29.296875 75.984375 
L 29.296875 69 
L 17.578125 69 
L 17.578125 -6.203125 
L 29.296875 -6.203125 
L 29.296875 -13.1875 
L 8.59375 -13.1875 
z
" id="DejaVuSans-91"/>
      <path d="M 44.28125 53.078125 
L 44.28125 44.578125 
Q 40.484375 46.53125 36.375 47.5 
Q 32.28125 48.484375 27.875 48.484375 
Q 21.1875 48.484375 17.84375 46.4375 
Q 14.5 44.390625 14.5 40.28125 
Q 14.5 37.15625 16.890625 35.375 
Q 19.28125 33.59375 26.515625 31.984375 
L 29.59375 31.296875 
Q 39.15625 29.25 43.1875 25.515625 
Q 47.21875 21.78125 47.21875 15.09375 
Q 47.21875 7.46875 41.1875 3.015625 
Q 35.15625 -1.421875 24.609375 -1.421875 
Q 20.21875 -1.421875 15.453125 -0.5625 
Q 10.6875 0.296875 5.421875 2 
L 5.421875 11.28125 
Q 10.40625 8.6875 15.234375 7.390625 
Q 20.0625 6.109375 24.8125 6.109375 
Q 31.15625 6.109375 34.5625 8.28125 
Q 37.984375 10.453125 37.984375 14.40625 
Q 37.984375 18.0625 35.515625 20.015625 
Q 33.0625 21.96875 24.703125 23.78125 
L 21.578125 24.515625 
Q 13.234375 26.265625 9.515625 29.90625 
Q 5.8125 33.546875 5.8125 39.890625 
Q 5.8125 47.609375 11.28125 51.796875 
Q 16.75 56 26.8125 56 
Q 31.78125 56 36.171875 55.265625 
Q 40.578125 54.546875 44.28125 53.078125 
z
" id="DejaVuSans-115"/>
      <path d="M 30.421875 75.984375 
L 30.421875 -13.1875 
L 9.71875 -13.1875 
L 9.71875 -6.203125 
L 21.390625 -6.203125 
L 21.390625 69 
L 9.71875 69 
L 9.71875 75.984375 
z
" id="DejaVuSans-93"/>
     </defs>
     <g transform="translate(524.179375 629.739833)scale(0.28 -0.28)">
      <use xlink:href="#DejaVuSans-84"/>
      <use x="61.037109" xlink:href="#DejaVuSans-105"/>
      <use x="88.820312" xlink:href="#DejaVuSans-109"/>
      <use x="186.232422" xlink:href="#DejaVuSans-101"/>
      <use x="247.755859" xlink:href="#DejaVuSans-32"/>
      <use x="279.542969" xlink:href="#DejaVuSans-91"/>
      <use x="318.556641" xlink:href="#DejaVuSans-115"/>
      <use x="370.65625" xlink:href="#DejaVuSans-93"/>
     </g>
    </g>
   </g>
   <g id="matplotlib.axis_2">
    <g id="ytick_1">
     <g id="line2d_52">
      <defs>
       <path d="M 0 0 
L -12 0 
" id="m58970b6a0e" style="stroke:#000000;stroke-width:0.8;"/>
      </defs>
      <g>
       <use style="stroke:#000000;stroke-width:0.8;" x="136.365" xlink:href="#m58970b6a0e" y="565.736708"/>
      </g>
     </g>
     <g id="text_8">
      <!-- −1.0 -->
      <defs>
       <path d="M 10.59375 35.5 
L 73.1875 35.5 
L 73.1875 27.203125 
L 10.59375 27.203125 
z
" id="DejaVuSans-8722"/>
       <path d="M 10.6875 12.40625 
L 21 12.40625 
L 21 0 
L 10.6875 0 
z
" id="DejaVuSans-46"/>
      </defs>
      <g transform="translate(62.58625 574.854833)scale(0.24 -0.24)">
       <use xlink:href="#DejaVuSans-8722"/>
       <use x="83.789062" xlink:href="#DejaVuSans-49"/>
       <use x="147.412109" xlink:href="#DejaVuSans-46"/>
       <use x="179.199219" xlink:href="#DejaVuSans-48"/>
      </g>
     </g>
    </g>
    <g id="ytick_2">
     <g id="line2d_53">
      <g>
       <use style="stroke:#000000;stroke-width:0.8;" x="136.365" xlink:href="#m58970b6a0e" y="434.237531"/>
      </g>
     </g>
     <g id="text_9">
      <!-- −0.5 -->
      <g transform="translate(62.58625 443.355656)scale(0.24 -0.24)">
       <use xlink:href="#DejaVuSans-8722"/>
       <use x="83.789062" xlink:href="#DejaVuSans-48"/>
       <use x="147.412109" xlink:href="#DejaVuSans-46"/>
       <use x="179.199219" xlink:href="#DejaVuSans-53"/>
      </g>
     </g>
    </g>
    <g id="ytick_3">
     <g id="line2d_54">
      <g>
       <use style="stroke:#000000;stroke-width:0.8;" x="136.365" xlink:href="#m58970b6a0e" y="302.738354"/>
      </g>
     </g>
     <g id="text_10">
      <!-- 0.0 -->
      <g transform="translate(82.6975 311.856479)scale(0.24 -0.24)">
       <use xlink:href="#DejaVuSans-48"/>
       <use x="63.623047" xlink:href="#DejaVuSans-46"/>
       <use x="95.410156" xlink:href="#DejaVuSans-48"/>
      </g>
     </g>
    </g>
    <g id="ytick_4">
     <g id="line2d_55">
      <g>
       <use style="stroke:#000000;stroke-width:0.8;" x="136.365" xlink:href="#m58970b6a0e" y="171.239177"/>
      </g>
     </g>
     <g id="text_11">
      <!-- 0.5 -->
      <g transform="translate(82.6975 180.357302)scale(0.24 -0.24)">
       <use xlink:href="#DejaVuSans-48"/>
       <use x="63.623047" xlink:href="#DejaVuSans-46"/>
       <use x="95.410156" xlink:href="#DejaVuSans-53"/>
      </g>
     </g>
    </g>
    <g id="ytick_5">
     <g id="line2d_56">
      <g>
       <use style="stroke:#000000;stroke-width:0.8;" x="136.365" xlink:href="#m58970b6a0e" y="39.74"/>
      </g>
     </g>
     <g id="text_12">
      <!-- 1.0 -->
      <g transform="translate(82.6975 48.858125)scale(0.24 -0.24)">
       <use xlink:href="#DejaVuSans-49"/>
       <use x="63.623047" xlink:href="#DejaVuSans-46"/>
       <use x="95.410156" xlink:href="#DejaVuSans-48"/>
      </g>
     </g>
    </g>
    <g id="ytick_6">
     <g id="line2d_57">
      <defs>
       <path d="M 0 0 
L -8 0 
" id="m61af578099" style="stroke:#000000;stroke-width:0.6;"/>
      </defs>
      <g>
       <use style="stroke:#000000;stroke-width:0.6;" x="136.365" xlink:href="#m61af578099" y="539.436872"/>
      </g>
     </g>
    </g>
    <g id="ytick_7">
     <g id="line2d_58">
      <g>
       <use style="stroke:#000000;stroke-width:0.6;" x="136.365" xlink:href="#m61af578099" y="513.137037"/>
      </g>
     </g>
    </g>
    <g id="ytick_8">
     <g id="line2d_59">
      <g>
       <use style="stroke:#000000;stroke-width:0.6;" x="136.365" xlink:href="#m61af578099" y="486.837202"/>
      </g>
     </g>
    </g>
    <g id="ytick_9">
     <g id="line2d_60">
      <g>
       <use style="stroke:#000000;stroke-width:0.6;" x="136.365" xlink:href="#m61af578099" y="460.537366"/>
      </g>
     </g>
    </g>
    <g id="ytick_10">
     <g id="line2d_61">
      <g>
       <use style="stroke:#000000;stroke-width:0.6;" x="136.365" xlink:href="#m61af578099" y="407.937695"/>
      </g>
     </g>
    </g>
    <g id="ytick_11">
     <g id="line2d_62">
      <g>
       <use style="stroke:#000000;stroke-width:0.6;" x="136.365" xlink:href="#m61af578099" y="381.63786"/>
      </g>
     </g>
    </g>
    <g id="ytick_12">
     <g id="line2d_63">
      <g>
       <use style="stroke:#000000;stroke-width:0.6;" x="136.365" xlink:href="#m61af578099" y="355.338025"/>
      </g>
     </g>
    </g>
    <g id="ytick_13">
     <g id="line2d_64">
      <g>
       <use style="stroke:#000000;stroke-width:0.6;" x="136.365" xlink:href="#m61af578099" y="329.038189"/>
      </g>
     </g>
    </g>
    <g id="ytick_14">
     <g id="line2d_65">
      <g>
       <use style="stroke:#000000;stroke-width:0.6;" x="136.365" xlink:href="#m61af578099" y="276.438519"/>
      </g>
     </g>
    </g>
    <g id="ytick_15">
     <g id="line2d_66">
      <g>
       <use style="stroke:#000000;stroke-width:0.6;" x="136.365" xlink:href="#m61af578099" y="250.138683"/>
      </g>
     </g>
    </g>
    <g id="ytick_16">
     <g id="line2d_67">
      <g>
       <use style="stroke:#000000;stroke-width:0.6;" x="136.365" xlink:href="#m61af578099" y="223.838848"/>
      </g>
     </g>
    </g>
    <g id="ytick_17">
     <g id="line2d_68">
      <g>
       <use style="stroke:#000000;stroke-width:0.6;" x="136.365" xlink:href="#m61af578099" y="197.539012"/>
      </g>
     </g>
    </g>
    <g id="ytick_18">
     <g id="line2d_69">
      <g>
       <use style="stroke:#000000;stroke-width:0.6;" x="136.365" xlink:href="#m61af578099" y="144.939342"/>
      </g>
     </g>
    </g>
    <g id="ytick_19">
     <g id="line2d_70">
      <g>
       <use style="stroke:#000000;stroke-width:0.6;" x="136.365" xlink:href="#m61af578099" y="118.639506"/>
      </g>
     </g>
    </g>
    <g id="ytick_20">
     <g id="line2d_71">
      <g>
       <use style="stroke:#000000;stroke-width:0.6;" x="136.365" xlink:href="#m61af578099" y="92.339671"/>
      </g>
     </g>
    </g>
    <g id="ytick_21">
     <g id="line2d_72">
      <g>
       <use style="stroke:#000000;stroke-width:0.6;" x="136.365" xlink:href="#m61af578099" y="66.039835"/>
      </g>
     </g>
    </g>
    <g id="text_13">
     <!-- Amplitude -->
     <defs>
      <path d="M 34.1875 63.1875 
L 20.796875 26.90625 
L 47.609375 26.90625 
z
M 28.609375 72.90625 
L 39.796875 72.90625 
L 67.578125 0 
L 57.328125 0 
L 50.6875 18.703125 
L 17.828125 18.703125 
L 11.1875 0 
L 0.78125 0 
z
" id="DejaVuSans-65"/>
      <path d="M 18.109375 8.203125 
L 18.109375 -20.796875 
L 9.078125 -20.796875 
L 9.078125 54.6875 
L 18.109375 54.6875 
L 18.109375 46.390625 
Q 20.953125 51.265625 25.265625 53.625 
Q 29.59375 56 35.59375 56 
Q 45.5625 56 51.78125 48.09375 
Q 58.015625 40.1875 58.015625 27.296875 
Q 58.015625 14.40625 51.78125 6.484375 
Q 45.5625 -1.421875 35.59375 -1.421875 
Q 29.59375 -1.421875 25.265625 0.953125 
Q 20.953125 3.328125 18.109375 8.203125 
z
M 48.6875 27.296875 
Q 48.6875 37.203125 44.609375 42.84375 
Q 40.53125 48.484375 33.40625 48.484375 
Q 26.265625 48.484375 22.1875 42.84375 
Q 18.109375 37.203125 18.109375 27.296875 
Q 18.109375 17.390625 22.1875 11.75 
Q 26.265625 6.109375 33.40625 6.109375 
Q 40.53125 6.109375 44.609375 11.75 
Q 48.6875 17.390625 48.6875 27.296875 
z
" id="DejaVuSans-112"/>
      <path d="M 9.421875 75.984375 
L 18.40625 75.984375 
L 18.40625 0 
L 9.421875 0 
z
" id="DejaVuSans-108"/>
      <path d="M 18.3125 70.21875 
L 18.3125 54.6875 
L 36.8125 54.6875 
L 36.8125 47.703125 
L 18.3125 47.703125 
L 18.3125 18.015625 
Q 18.3125 11.328125 20.140625 9.421875 
Q 21.96875 7.515625 27.59375 7.515625 
L 36.8125 7.515625 
L 36.8125 0 
L 27.59375 0 
Q 17.1875 0 13.234375 3.875 
Q 9.28125 7.765625 9.28125 18.015625 
L 9.28125 47.703125 
L 2.6875 47.703125 
L 2.6875 54.6875 
L 9.28125 54.6875 
L 9.28125 70.21875 
z
" id="DejaVuSans-116"/>
      <path d="M 8.5 21.578125 
L 8.5 54.6875 
L 17.484375 54.6875 
L 17.484375 21.921875 
Q 17.484375 14.15625 20.5 10.265625 
Q 23.53125 6.390625 29.59375 6.390625 
Q 36.859375 6.390625 41.078125 11.03125 
Q 45.3125 15.671875 45.3125 23.6875 
L 45.3125 54.6875 
L 54.296875 54.6875 
L 54.296875 0 
L 45.3125 0 
L 45.3125 8.40625 
Q 42.046875 3.421875 37.71875 1 
Q 33.40625 -1.421875 27.6875 -1.421875 
Q 18.265625 -1.421875 13.375 4.4375 
Q 8.5 10.296875 8.5 21.578125 
z
M 31.109375 56 
z
" id="DejaVuSans-117"/>
      <path d="M 45.40625 46.390625 
L 45.40625 75.984375 
L 54.390625 75.984375 
L 54.390625 0 
L 45.40625 0 
L 45.40625 8.203125 
Q 42.578125 3.328125 38.25 0.953125 
Q 33.9375 -1.421875 27.875 -1.421875 
Q 17.96875 -1.421875 11.734375 6.484375 
Q 5.515625 14.40625 5.515625 27.296875 
Q 5.515625 40.1875 11.734375 48.09375 
Q 17.96875 56 27.875 56 
Q 33.9375 56 38.25 53.625 
Q 42.578125 51.265625 45.40625 46.390625 
z
M 14.796875 27.296875 
Q 14.796875 17.390625 18.875 11.75 
Q 22.953125 6.109375 30.078125 6.109375 
Q 37.203125 6.109375 41.296875 11.75 
Q 45.40625 17.390625 45.40625 27.296875 
Q 45.40625 37.203125 41.296875 42.84375 
Q 37.203125 48.484375 30.078125 48.484375 
Q 22.953125 48.484375 18.875 42.84375 
Q 14.796875 37.203125 14.796875 27.296875 
z
" id="DejaVuSans-100"/>
     </defs>
     <g transform="translate(52.763125 374.481791)rotate(-90)scale(0.28 -0.28)">
      <use xlink:href="#DejaVuSans-65"/>
      <use x="68.408203" xlink:href="#DejaVuSans-109"/>
      <use x="165.820312" xlink:href="#DejaVuSans-112"/>
      <use x="229.296875" xlink:href="#DejaVuSans-108"/>
      <use x="257.080078" xlink:href="#DejaVuSans-105"/>
      <use x="284.863281" xlink:href="#DejaVuSans-116"/>
      <use x="324.072266" xlink:href="#DejaVuSans-117"/>
      <use x="387.451172" xlink:href="#DejaVuSans-100"/>
      <use x="450.927734" xlink:href="#DejaVuSans-101"/>
     </g>
    </g>
   </g>
   <g id="line2d_73">
    <path clip-path="url(#p0905cba6dd)" d="M 136.365 310.979827 
L 138.145665 311.370101 
L 139.570197 311.468921 
L 140.994729 311.356335 
L 142.597328 311.004214 
L 144.199926 310.432618 
L 145.624458 309.708694 
L 147.04899 308.751374 
L 148.829655 307.272856 
L 151.678719 304.566361 
L 154.17165 302.309484 
L 155.774248 301.184403 
L 157.376847 300.338595 
L 164.143374 297.305005 
L 165.389839 296.931916 
L 166.458238 296.813136 
L 167.704704 296.911361 
L 169.841502 297.380756 
L 171.9783 297.764692 
L 174.115098 297.906937 
L 175.895763 297.806637 
L 177.498362 297.475692 
L 181.415825 296.475031 
L 182.66229 296.499974 
L 183.730689 296.740099 
L 184.977155 297.27527 
L 186.401687 298.173635 
L 188.182352 299.611812 
L 191.209482 302.438741 
L 194.236613 305.157377 
L 196.017278 306.467193 
L 197.619876 307.373563 
L 199.400541 308.106191 
L 201.359273 308.653411 
L 202.961871 308.89496 
L 204.386403 308.897802 
L 205.632869 308.673606 
L 206.879334 308.199526 
L 208.481933 307.294493 
L 210.440664 306.181661 
L 211.509063 305.804593 
L 212.577462 305.659803 
L 213.823928 305.750333 
L 215.604593 306.162519 
L 218.453657 306.83832 
L 219.878189 306.950441 
L 220.946588 306.836782 
L 222.014987 306.497074 
L 223.083386 305.911608 
L 224.329851 304.957074 
L 226.822782 302.650079 
L 228.781514 300.993866 
L 230.384112 299.902632 
L 231.986711 299.07936 
L 233.233176 298.663425 
L 234.479642 298.490165 
L 235.726107 298.569674 
L 237.328706 298.93499 
L 240.355836 299.661532 
L 242.314568 299.852125 
L 244.095233 299.791546 
L 245.697831 299.495762 
L 249.793361 298.519946 
L 250.86176 298.602557 
L 251.930159 298.927017 
L 252.998558 299.492383 
L 254.245023 300.422992 
L 255.847622 301.938854 
L 259.230885 305.27919 
L 260.299284 306.006402 
L 261.189616 306.376987 
L 262.079949 306.510199 
L 262.970281 306.41351 
L 264.03868 306.040945 
L 265.463212 305.254601 
L 268.490343 303.472871 
L 269.736809 303.047828 
L 270.805207 302.943813 
L 271.69554 303.072359 
L 272.585872 303.410265 
L 273.654271 304.092447 
L 274.900737 305.218042 
L 277.927867 308.164415 
L 278.8182 308.639342 
L 279.530466 308.791124 
L 280.242732 308.727098 
L 280.954998 308.452861 
L 281.845331 307.845384 
L 282.913729 306.805492 
L 284.338261 305.058963 
L 286.653126 301.784615 
L 288.967991 298.610405 
L 290.214456 297.267503 
L 291.282855 296.451574 
L 292.173188 296.031256 
L 293.06352 295.828306 
L 294.131919 295.813848 
L 295.378385 296.027366 
L 296.62485 296.453009 
L 297.871316 297.130036 
L 299.117781 298.09873 
L 300.72038 299.687419 
L 303.391377 302.380533 
L 304.637843 303.330272 
L 305.884308 304.018779 
L 307.30884 304.550681 
L 309.089505 304.972744 
L 312.116636 305.402719 
L 318.170897 306.123549 
L 319.773495 306.057366 
L 321.198027 305.799773 
L 322.622559 305.335093 
L 324.225158 304.576759 
L 326.361956 303.292608 
L 328.67682 301.64361 
L 331.347818 299.744697 
L 332.77235 299.037827 
L 334.018815 298.660645 
L 335.443347 298.457311 
L 337.224012 298.429117 
L 339.538877 298.614497 
L 345.593138 299.484422 
L 350.935133 300.310356 
L 355.030662 300.320947 
L 355.920995 300.692371 
L 356.811327 301.342161 
L 357.70166 302.299846 
L 358.770059 303.854627 
L 359.838458 305.812283 
L 361.26299 308.903652 
L 364.646253 316.463267 
L 365.714652 318.24914 
L 366.604985 319.346911 
L 367.317251 319.943229 
L 368.029516 320.280202 
L 368.741782 320.356011 
L 369.454048 320.171909 
L 370.166314 319.73137 
L 370.87858 319.041065 
L 371.768913 317.847011 
L 372.837312 315.986584 
L 374.261844 312.960334 
L 377.467041 305.325643 
L 379.781905 300.171035 
L 381.740637 296.35026 
L 383.521302 293.360462 
L 384.945834 291.348403 
L 386.192299 289.941741 
L 387.260698 289.053012 
L 388.151031 288.55725 
L 389.041363 288.290358 
L 389.931696 288.250398 
L 390.822028 288.42875 
L 391.890427 288.905795 
L 392.958826 289.627318 
L 394.205292 290.722269 
L 395.629824 292.278466 
L 397.054356 294.189244 
L 398.656955 296.765934 
L 401.149885 301.298732 
L 404.355082 307.014341 
L 405.779615 309.151422 
L 406.848014 310.406636 
L 407.738346 311.162233 
L 408.628679 311.638808 
L 409.519011 311.850837 
L 410.409344 311.828383 
L 411.299676 311.603966 
L 412.368075 311.101363 
L 413.436474 310.356943 
L 414.504873 309.360049 
L 415.751339 307.861054 
L 417.17587 305.731609 
L 419.134602 302.326422 
L 421.449466 298.380607 
L 422.695932 296.678376 
L 423.764331 295.579435 
L 424.83273 294.830343 
L 425.723063 294.458654 
L 426.613395 294.299374 
L 427.503728 294.343542 
L 428.39406 294.589456 
L 429.462459 295.145963 
L 430.530858 295.958305 
L 432.133456 297.494889 
L 434.626388 299.900604 
L 436.05092 300.931582 
L 437.297385 301.569718 
L 438.899984 302.115546 
L 443.885845 303.565284 
L 445.66651 304.454181 
L 447.091043 305.398037 
L 448.515575 306.601585 
L 450.474306 308.607531 
L 452.967237 311.171457 
L 454.213703 312.157306 
L 455.282102 312.743655 
L 456.3505 313.072226 
L 457.4189 313.152388 
L 458.487299 313.008613 
L 459.733764 312.604709 
L 461.336363 311.828353 
L 465.966092 309.434576 
L 471.308087 307.097043 
L 472.910685 306.052708 
L 474.335217 304.886738 
L 475.759749 303.438584 
L 477.184281 301.672539 
L 479.321079 298.599179 
L 481.635943 295.345759 
L 483.238542 293.483429 
L 485.019207 291.775738 
L 486.977938 290.18738 
L 488.40247 289.268803 
L 489.648936 288.699695 
L 490.895401 288.391548 
L 491.9638 288.350702 
L 493.032199 288.517668 
L 494.278665 288.957926 
L 495.703197 289.74037 
L 497.127729 290.786353 
L 498.374195 291.942955 
L 499.62066 293.415246 
L 500.689059 295.006267 
L 501.935525 297.273235 
L 503.538123 300.71184 
L 506.387187 307.496976 
L 509.236251 314.145644 
L 510.660783 316.894077 
L 511.729182 318.456582 
L 512.619515 319.32713 
L 513.33178 319.694669 
L 513.86598 319.762021 
L 514.40018 319.643227 
L 514.934379 319.335087 
L 515.646645 318.63083 
L 516.358911 317.601505 
L 517.249244 315.891219 
L 518.317642 313.305856 
L 519.742175 309.212042 
L 523.659637 297.52751 
L 524.906103 294.637201 
L 525.974502 292.741746 
L 526.864835 291.63921 
L 527.5771 291.096127 
L 528.289366 290.866916 
L 528.823566 290.903313 
L 529.357765 291.116484 
L 530.070031 291.666908 
L 530.782297 292.502098 
L 531.67263 293.898068 
L 532.919095 296.362598 
L 534.877827 300.88077 
L 537.014625 305.719761 
L 538.26109 308.029923 
L 539.151423 309.297359 
L 540.041755 310.188302 
L 540.754021 310.618608 
L 541.466288 310.807095 
L 542.178554 310.777055 
L 543.068886 310.48234 
L 544.137285 309.843938 
L 545.561817 308.679065 
L 547.520549 306.755961 
L 550.547679 303.752525 
L 551.616078 302.978862 
L 552.50641 302.552483 
L 553.396743 302.348926 
L 554.287075 302.36117 
L 555.355475 302.619428 
L 556.60194 303.174464 
L 558.026472 304.04756 
L 559.807137 305.404157 
L 562.122002 307.178565 
L 563.1904 307.740092 
L 564.2588 308.032837 
L 565.327199 308.056462 
L 566.573664 307.813137 
L 568.176263 307.223574 
L 569.778861 306.399488 
L 571.025327 305.539336 
L 572.271792 304.421856 
L 573.696324 302.827601 
L 575.655055 300.258823 
L 578.50412 296.518627 
L 579.928652 295.03423 
L 580.997051 294.207608 
L 582.065449 293.667861 
L 582.955782 293.459066 
L 583.846114 293.488233 
L 584.736447 293.767253 
L 585.626779 294.2933 
L 586.695178 295.219115 
L 587.941644 296.629898 
L 589.544242 298.827192 
L 591.859107 302.465172 
L 593.995905 305.761434 
L 595.24237 307.282516 
L 596.132703 308.068199 
L 597.023035 308.567584 
L 597.913368 308.774578 
L 598.625634 308.733776 
L 599.515967 308.432346 
L 600.406299 307.860617 
L 601.296632 307.028752 
L 602.36503 305.712595 
L 603.789562 303.525432 
L 607.350892 297.742772 
L 608.597358 296.240497 
L 609.665757 295.285326 
L 610.734156 294.650773 
L 611.624488 294.369871 
L 612.514821 294.309926 
L 613.405153 294.457882 
L 614.473552 294.882292 
L 615.720018 295.664561 
L 617.322617 296.987262 
L 619.993614 299.536619 
L 622.308478 302.021442 
L 625.157542 305.46316 
L 628.006607 308.802624 
L 629.609205 310.374153 
L 631.033737 311.473583 
L 632.280202 312.144183 
L 633.348602 312.472534 
L 634.417 312.56709 
L 635.4854 312.441755 
L 636.731865 312.048457 
L 637.97833 311.40777 
L 639.224796 310.500342 
L 640.293195 309.466759 
L 641.361594 308.148714 
L 642.60806 306.214794 
L 644.032592 303.515656 
L 646.16939 298.858316 
L 648.66232 293.545715 
L 650.086852 291.047828 
L 651.155252 289.574629 
L 652.045584 288.663768 
L 652.935917 288.078175 
L 653.648182 287.859529 
L 654.360448 287.866636 
L 655.072714 288.093772 
L 655.963047 288.666008 
L 656.853379 289.523001 
L 657.921778 290.870312 
L 659.168244 292.804836 
L 660.770842 295.74715 
L 662.90764 300.19957 
L 665.934771 306.515517 
L 667.53737 309.347436 
L 668.961902 311.454685 
L 670.5645 313.446948 
L 672.523232 315.526982 
L 674.303897 317.13655 
L 675.906495 318.290667 
L 677.331027 319.031601 
L 678.577492 319.428623 
L 679.645892 319.551015 
L 680.71429 319.438323 
L 681.78269 319.064641 
L 682.851088 318.418138 
L 683.919487 317.500189 
L 685.165953 316.115396 
L 686.768552 313.968767 
L 689.617615 309.713004 
L 692.644746 304.804986 
L 695.849943 299.637733 
L 698.164807 296.346368 
L 703.15067 289.739218 
L 704.575202 288.175537 
L 705.821667 287.124287 
L 706.890066 286.526279 
L 707.780398 286.274367 
L 708.670731 286.271325 
L 709.382997 286.46442 
L 710.27333 286.968919 
L 711.163662 287.7771 
L 712.053995 288.880355 
L 713.30046 290.843071 
L 715.081125 294.153579 
L 718.642455 300.824725 
L 720.779253 304.317145 
L 722.381852 306.522912 
L 723.628317 307.881976 
L 724.696716 308.729094 
L 725.587048 309.183907 
L 726.477381 309.401379 
L 727.367713 309.380247 
L 728.258046 309.121171 
L 729.148378 308.625559 
L 730.216778 307.729156 
L 731.285177 306.537104 
L 732.709708 304.601235 
L 737.517504 297.728864 
L 738.76397 296.423804 
L 739.832368 295.572138 
L 740.900768 294.984078 
L 741.969167 294.652063 
L 743.037565 294.550786 
L 744.284031 294.671354 
L 746.064696 295.119303 
L 748.201494 295.640138 
L 749.44796 295.707179 
L 750.694425 295.538079 
L 752.118957 295.112049 
L 753.721556 294.406181 
L 755.146088 293.548809 
L 756.57062 292.43605 
L 759.775817 289.762966 
L 760.666149 289.321367 
L 761.556482 289.119542 
L 762.446814 289.17608 
L 763.337147 289.492693 
L 764.227479 290.066853 
L 765.117812 290.899687 
L 766.186211 292.247456 
L 767.25461 293.979791 
L 768.501075 296.472185 
L 769.925607 299.878457 
L 771.706272 304.759636 
L 775.445668 315.223626 
L 776.870201 318.451909 
L 777.9386 320.383115 
L 778.828932 321.628114 
L 779.719265 322.514194 
L 780.431531 322.947835 
L 781.143797 323.126233 
L 781.856063 323.046885 
L 782.568328 322.718055 
L 783.458661 321.991547 
L 784.52706 320.76295 
L 788.62259 315.624424 
L 789.690989 314.812306 
L 790.581321 314.392094 
L 791.471654 314.223553 
L 792.18392 314.285164 
L 792.896186 314.535443 
L 793.608452 314.986022 
L 794.498784 315.840837 
L 795.389117 317.012806 
L 796.457515 318.78683 
L 798.060114 321.962284 
L 806.251173 339.001585 
L 807.319572 340.554932 
L 808.209904 341.500857 
L 808.92217 341.99609 
L 809.634436 342.242747 
L 810.346702 342.236551 
L 811.058968 341.9846 
L 811.771234 341.504184 
L 812.661567 340.620626 
L 813.729966 339.223572 
L 815.332564 336.675988 
L 818.893894 330.849782 
L 820.318426 329.004949 
L 821.742958 327.545824 
L 823.345557 326.272093 
L 826.72882 323.800574 
L 827.619153 322.821894 
L 828.509485 321.479087 
L 829.221751 320.030269 
L 829.934017 318.139245 
L 830.646283 315.691596 
L 831.358549 312.562605 
L 832.248882 307.497022 
L 833.139214 300.922049 
L 834.029547 292.621276 
L 835.097946 280.143995 
L 836.166345 264.762704 
L 837.41281 243.162003 
L 838.837342 214.1246 
L 840.796074 168.802151 
L 844.001271 94.140627 
L 845.247736 70.416199 
L 846.138069 56.952822 
L 846.850335 48.738372 
L 847.562601 43.069425 
L 848.0968 40.605342 
L 848.452933 39.847976 
L 848.631 39.74 
L 848.809066 39.814116 
L 849.165199 40.512557 
L 849.521332 41.948455 
L 850.055532 45.487546 
L 850.589731 50.680352 
L 851.301997 60.132589 
L 852.19233 75.868646 
L 853.082662 95.693735 
L 854.151062 124.342144 
L 855.575593 169.400752 
L 857.534325 240.063892 
L 862.164054 410.888556 
L 863.766652 460.37138 
L 865.013118 492.567783 
L 866.081517 515.036915 
L 866.971849 529.860037 
L 867.862182 541.027988 
L 868.574448 547.336027 
L 869.108647 550.568637 
L 869.642847 552.558288 
L 869.99898 553.217774 
L 870.355113 553.362918 
L 870.711246 553.011824 
L 871.067379 552.184104 
L 871.601578 550.094315 
L 872.135778 547.052967 
L 872.848044 541.654304 
L 873.738377 533.023579 
L 874.806775 520.430201 
L 876.409374 498.391028 
L 882.463635 411.464302 
L 884.778499 383.400488 
L 897.777354 234.325395 
L 899.558019 217.756022 
L 900.982551 206.371735 
L 902.407083 196.73475 
L 903.653548 189.75858 
L 904.721947 184.874628 
L 905.790347 181.010897 
L 906.680679 178.567491 
L 907.571012 176.818152 
L 908.283277 175.906479 
L 908.817477 175.499501 
L 909.351677 175.323492 
L 909.885876 175.372738 
L 910.420075 175.642019 
L 910.954275 176.127055 
L 911.666541 177.104998 
L 912.378807 178.461937 
L 913.26914 180.704339 
L 914.159472 183.584249 
L 915.049805 187.14781 
L 916.118203 192.4035 
L 917.186602 198.81866 
L 918.433068 207.880668 
L 919.679533 218.720805 
L 921.104065 233.281637 
L 922.706664 252.205008 
L 924.665395 278.203122 
L 930.719657 361.232427 
L 932.144188 376.712661 
L 933.390654 387.739262 
L 934.280987 393.969603 
L 935.171319 398.704539 
L 935.883585 401.359758 
L 936.417785 402.672915 
L 936.951984 403.400168 
L 937.308117 403.560454 
L 937.66425 403.463553 
L 938.020383 403.112985 
L 938.554583 402.121781 
L 939.088782 400.590047 
L 939.801048 397.749781 
L 940.69138 393.018568 
L 941.75978 385.838533 
L 943.006245 375.85634 
L 945.32111 355.008886 
L 947.457908 336.427367 
L 948.88244 325.896682 
L 950.128905 318.352347 
L 951.197304 313.192772 
L 952.265703 309.183683 
L 953.156035 306.628679 
L 954.046368 304.67693 
L 954.9367 303.208155 
L 956.0051 301.906028 
L 957.429632 300.607314 
L 959.744496 298.569011 
L 960.812895 297.33931 
L 961.881294 295.778894 
L 962.949693 293.801864 
L 964.018092 291.347134 
L 965.264558 287.856574 
L 966.68909 283.131708 
L 969.18202 273.853697 
L 971.140752 266.91145 
L 972.565284 262.611952 
L 973.81175 259.491706 
L 975.058215 256.993364 
L 976.126614 255.365184 
L 977.016947 254.390346 
L 977.907279 253.773725 
L 978.619545 253.535126 
L 979.331811 253.509978 
L 980.044077 253.678329 
L 980.93441 254.123616 
L 982.002808 254.94115 
L 983.249274 256.216943 
L 984.49574 257.818431 
L 985.742205 259.767536 
L 987.166737 262.437918 
L 988.769336 265.955662 
L 990.371934 269.978356 
L 991.796466 274.171188 
L 992.864865 277.991642 
L 993.933264 282.703699 
L 995.001663 288.563492 
L 996.070062 295.713291 
L 997.316528 305.675324 
L 998.74106 318.921179 
L 1000.877858 341.15512 
L 1003.370788 366.666953 
L 1004.617254 377.414409 
L 1005.685653 384.903903 
L 1006.575986 389.753924 
L 1007.288252 392.685854 
L 1008.000518 394.782948 
L 1008.534717 395.826714 
L 1009.068917 396.439172 
L 1009.42505 396.619625 
L 1009.781182 396.626977 
L 1010.137315 396.469544 
L 1010.671515 395.943327 
L 1011.205714 395.095393 
L 1011.91798 393.516333 
L 1012.808313 390.919037 
L 1013.876712 387.048565 
L 1015.123177 381.694837 
L 1016.547709 374.617134 
L 1017.972241 366.493111 
L 1019.396773 357.181389 
L 1020.999372 345.107667 
L 1022.780037 329.707755 
L 1025.451034 304.076642 
L 1026.6975 292.142516 
L 1026.6975 292.142516 
" style="fill:none;stroke:#000000;stroke-linecap:square;stroke-width:1.5;"/>
   </g>
   <g id="line2d_74">
    <path clip-path="url(#p0905cba6dd)" d="M 848.602308 565.736708 
L 848.602308 39.74 
" style="fill:none;stroke:#ff0000;stroke-dasharray:5.55,2.4;stroke-dashoffset:0;stroke-width:1.5;"/>
   </g>
   <g id="patch_3">
    <path d="M 136.365 565.736708 
L 136.365 39.74 
" style="fill:none;stroke:#000000;stroke-linecap:square;stroke-linejoin:miter;stroke-width:0.8;"/>
   </g>
   <g id="patch_4">
    <path d="M 1026.6975 565.736708 
L 1026.6975 39.74 
" style="fill:none;stroke:#000000;stroke-linecap:square;stroke-linejoin:miter;stroke-width:0.8;"/>
   </g>
   <g id="patch_5">
    <path d="M 136.365 565.736708 
L 1026.6975 565.736708 
" style="fill:none;stroke:#000000;stroke-linecap:square;stroke-linejoin:miter;stroke-width:0.8;"/>
   </g>
   <g id="patch_6">
    <path d="M 136.365 39.74 
L 1026.6975 39.74 
" style="fill:none;stroke:#000000;stroke-linecap:square;stroke-linejoin:miter;stroke-width:0.8;"/>
   </g>
  </g>
 </g>
 <defs>
  <clipPath id="p0905cba6dd">
   <rect height="525.996708" width="890.3325" x="136.365" y="39.74"/>
  </clipPath>
 </defs>
</svg>
