<?xml version="1.0" encoding="utf-8" standalone="no"?>
<!DOCTYPE svg PUBLIC "-//W3C//DTD SVG 1.1//EN"
  "http://www.w3.org/Graphics/SVG/1.1/DTD/svg11.dtd">
<!-- Created with matplotlib (https://matplotlib.org/) -->
<svg height="533.981366pt" version="1.1" viewBox="0 0 864 533.981366" width="864pt" xmlns="http://www.w3.org/2000/svg" xmlns:xlink="http://www.w3.org/1999/xlink">
 <defs>
  <style type="text/css">
*{stroke-linecap:butt;stroke-linejoin:round;}
  </style>
 </defs>
 <g id="figure_1">
  <g id="patch_1">
   <path d="M 0 533.981366 
L 864 533.981366 
L 864 0 
L 0 0 
z
" style="fill:#ffffff;"/>
  </g>
  <g id="axes_1">
   <g id="patch_2">
    <path d="M 84.24 425.641366 
L 814.51 425.641366 
L 814.51 42.24 
L 84.24 42.24 
z
" style="fill:#ffffff;"/>
   </g>
   <g id="patch_3">
    <path clip-path="url(#pd47c06acd1)" d="M 91.470396 425.641366 
L 91.470396 423.366771 
L 92.193436 423.366771 
L 92.193436 421.004932 
L 92.916475 421.004932 
L 92.916475 418.730337 
L 93.639515 418.730337 
L 93.639515 416.293716 
L 94.362554 416.293716 
L 94.362554 413.919412 
L 95.085594 413.919412 
L 95.085594 411.557573 
L 95.808634 411.557573 
L 95.808634 409.314137 
L 96.531673 409.314137 
L 96.531673 407.226495 
L 97.254713 407.226495 
L 97.254713 404.827264 
L 97.977752 404.827264 
L 97.977752 402.384412 
L 98.700792 402.384412 
L 98.700792 399.97895 
L 99.423832 399.97895 
L 99.423832 397.679428 
L 100.146871 397.679428 
L 100.146871 395.367442 
L 100.869911 395.367442 
L 100.869911 392.880967 
L 101.59295 392.880967 
L 101.59295 390.550286 
L 102.31599 390.550286 
L 102.31599 388.175983 
L 103.03903 388.175983 
L 103.03903 385.876461 
L 103.762069 385.876461 
L 103.762069 383.389986 
L 104.485109 383.389986 
L 104.485109 380.785107 
L 105.208149 380.785107 
L 105.208149 378.39834 
L 105.931188 378.39834 
L 105.931188 375.99911 
L 106.654228 375.99911 
L 106.654228 373.817992 
L 107.377267 373.817992 
L 107.377267 371.424993 
L 108.100307 371.424993 
L 108.100307 369.044458 
L 108.823347 369.044458 
L 108.823347 366.875803 
L 109.546386 366.875803 
L 109.546386 364.781929 
L 110.269426 364.781929 
L 110.269426 362.451248 
L 110.992465 362.451248 
L 110.992465 360.120568 
L 111.715505 360.120568 
L 111.715505 357.708874 
L 112.438545 357.708874 
L 112.438545 355.197472 
L 113.161584 355.197472 
L 113.161584 352.873022 
L 113.884624 352.873022 
L 113.884624 350.523646 
L 114.607663 350.523646 
L 114.607663 348.012244 
L 115.330703 348.012244 
L 115.330703 345.500842 
L 116.053743 345.500842 
L 116.053743 343.226247 
L 116.776782 343.226247 
L 116.776782 340.683686 
L 117.499822 340.683686 
L 117.499822 338.421555 
L 118.222861 338.421555 
L 118.222861 335.878994 
L 118.945901 335.878994 
L 118.945901 333.760193 
L 119.668941 333.760193 
L 119.668941 331.622697 
L 120.39198 331.622697 
L 120.39198 329.267089 
L 121.11502 329.267089 
L 121.11502 326.973799 
L 121.838059 326.973799 
L 121.838059 324.599495 
L 122.561099 324.599495 
L 122.561099 322.281278 
L 123.284139 322.281278 
L 123.284139 319.888279 
L 124.007178 319.888279 
L 124.007178 317.557599 
L 124.730218 317.557599 
L 124.730218 315.401407 
L 125.453257 315.401407 
L 125.453257 313.157971 
L 126.176297 313.157971 
L 126.176297 310.677728 
L 126.899337 310.677728 
L 126.899337 308.21618 
L 127.622376 308.21618 
L 127.622376 305.85434 
L 128.345416 305.85434 
L 128.345416 303.604672 
L 129.068455 303.604672 
L 129.068455 301.273991 
L 129.791495 301.273991 
L 129.791495 299.142727 
L 130.514535 299.142727 
L 130.514535 296.899291 
L 131.237574 296.899291 
L 131.237574 294.599769 
L 131.960614 294.599769 
L 131.960614 292.094598 
L 132.683653 292.094598 
L 132.683653 289.801308 
L 133.406693 289.801308 
L 133.406693 287.732362 
L 134.129733 287.732362 
L 134.129733 285.439071 
L 134.852772 285.439071 
L 134.852772 283.089695 
L 135.575812 283.089695 
L 135.575812 280.621915 
L 136.298851 280.621915 
L 136.298851 278.366016 
L 137.021891 278.366016 
L 137.021891 275.873309 
L 137.744931 275.873309 
L 137.744931 273.598714 
L 138.46797 273.598714 
L 138.46797 271.249338 
L 139.19101 271.249338 
L 139.19101 268.918657 
L 139.91405 268.918657 
L 139.91405 266.513195 
L 140.637089 266.513195 
L 140.637089 264.350772 
L 141.360129 264.350772 
L 141.360129 262.082408 
L 142.083168 262.082408 
L 142.083168 259.83274 
L 142.806208 259.83274 
L 142.806208 257.763794 
L 143.529248 257.763794 
L 143.529248 255.514126 
L 144.252287 255.514126 
L 144.252287 253.495033 
L 144.975327 253.495033 
L 144.975327 251.419855 
L 145.698366 251.419855 
L 145.698366 249.089174 
L 146.421406 249.089174 
L 146.421406 247.082545 
L 147.144446 247.082545 
L 147.144446 244.70201 
L 147.867485 244.70201 
L 147.867485 242.414952 
L 148.590525 242.414952 
L 148.590525 240.289919 
L 149.313564 240.289919 
L 149.313564 238.164886 
L 150.036604 238.164886 
L 150.036604 236.071013 
L 150.759644 236.071013 
L 150.759644 233.833808 
L 151.482683 233.833808 
L 151.482683 231.69008 
L 152.205723 231.69008 
L 152.205723 229.596207 
L 152.928762 229.596207 
L 152.928762 227.296685 
L 153.651802 227.296685 
L 153.651802 225.159189 
L 154.374842 225.159189 
L 154.374842 223.027924 
L 155.097881 223.027924 
L 155.097881 220.996368 
L 155.820921 220.996368 
L 155.820921 218.983507 
L 156.54396 218.983507 
L 156.54396 217.082819 
L 157.267 217.082819 
L 157.267 215.207057 
L 157.99004 215.207057 
L 157.99004 213.275209 
L 158.713079 213.275209 
L 158.713079 211.299739 
L 159.436119 211.299739 
L 159.436119 209.274414 
L 160.159158 209.274414 
L 160.159158 207.286481 
L 160.882198 207.286481 
L 160.882198 205.261156 
L 161.605238 205.261156 
L 161.605238 203.429017 
L 162.328277 203.429017 
L 162.328277 201.484706 
L 163.051317 201.484706 
L 163.051317 199.721116 
L 163.774356 199.721116 
L 163.774356 197.920135 
L 164.497396 197.920135 
L 164.497396 195.851188 
L 165.220436 195.851188 
L 165.220436 193.962963 
L 165.943475 193.962963 
L 165.943475 191.950102 
L 166.666515 191.950102 
L 166.666515 190.14289 
L 167.389554 190.14289 
L 167.389554 188.292055 
L 168.112594 188.292055 
L 168.112594 186.391366 
L 168.835634 186.391366 
L 168.835634 184.665166 
L 169.558673 184.665166 
L 169.558673 182.95143 
L 170.281713 182.95143 
L 170.281713 181.206536 
L 171.004752 181.206536 
L 171.004752 179.486568 
L 171.727792 179.486568 
L 171.727792 177.797759 
L 172.450832 177.797759 
L 172.450832 176.090255 
L 173.173871 176.090255 
L 173.173871 174.494923 
L 173.896911 174.494923 
L 173.896911 172.675247 
L 174.61995 172.675247 
L 174.61995 171.036292 
L 175.34299 171.036292 
L 175.34299 169.440959 
L 176.06603 169.440959 
L 176.06603 167.733455 
L 176.789069 167.733455 
L 176.789069 166.244063 
L 177.512109 166.244063 
L 177.512109 164.704816 
L 178.235149 164.704816 
L 178.235149 163.252815 
L 178.958188 163.252815 
L 178.958188 161.701105 
L 179.681228 161.701105 
L 179.681228 160.230408 
L 180.404267 160.230408 
L 180.404267 158.522904 
L 181.127307 158.522904 
L 181.127307 156.715691 
L 181.850347 156.715691 
L 181.850347 155.182676 
L 182.573386 155.182676 
L 182.573386 153.674589 
L 183.296426 153.674589 
L 183.296426 152.048098 
L 184.019465 152.048098 
L 184.019465 150.801744 
L 184.742505 150.801744 
L 184.742505 149.567854 
L 185.465545 149.567854 
L 185.465545 148.259183 
L 186.188584 148.259183 
L 186.188584 147.006598 
L 186.911624 147.006598 
L 186.911624 145.722854 
L 187.634663 145.722854 
L 187.634663 144.482732 
L 188.357703 144.482732 
L 188.357703 143.186525 
L 189.080743 143.186525 
L 189.080743 141.909013 
L 189.803782 141.909013 
L 189.803782 140.675123 
L 190.526822 140.675123 
L 190.526822 139.447465 
L 191.249861 139.447465 
L 191.249861 138.319515 
L 191.972901 138.319515 
L 191.972901 137.116784 
L 192.695941 137.116784 
L 192.695941 135.907821 
L 193.41898 135.907821 
L 193.41898 134.536832 
L 194.14202 134.536832 
L 194.14202 133.489895 
L 194.865059 133.489895 
L 194.865059 132.293396 
L 195.588099 132.293396 
L 195.588099 131.2153 
L 196.311139 131.2153 
L 196.311139 130.1559 
L 197.034178 130.1559 
L 197.034178 128.940705 
L 197.757218 128.940705 
L 197.757218 127.943623 
L 198.480257 127.943623 
L 198.480257 126.909149 
L 199.203297 126.909149 
L 199.203297 125.731345 
L 199.926337 125.731345 
L 199.926337 124.784117 
L 200.649376 124.784117 
L 200.649376 123.712253 
L 201.372416 123.712253 
L 201.372416 122.659084 
L 202.095455 122.659084 
L 202.095455 121.605916 
L 202.818495 121.605916 
L 202.818495 120.758395 
L 203.541535 120.758395 
L 203.541535 119.767544 
L 204.264574 119.767544 
L 204.264574 118.938719 
L 204.987614 118.938719 
L 204.987614 117.922941 
L 205.710653 117.922941 
L 205.710653 117.094116 
L 206.433693 117.094116 
L 206.433693 116.128192 
L 207.156733 116.128192 
L 207.156733 115.261977 
L 207.879772 115.261977 
L 207.879772 114.327212 
L 208.602812 114.327212 
L 208.602812 113.598095 
L 209.325851 113.598095 
L 209.325851 112.682025 
L 210.048891 112.682025 
L 210.048891 111.878127 
L 210.771931 111.878127 
L 210.771931 110.955826 
L 211.49497 110.955826 
L 211.49497 110.201782 
L 212.21801 110.201782 
L 212.21801 109.304407 
L 212.94105 109.304407 
L 212.94105 108.550364 
L 213.664089 108.550364 
L 213.664089 107.734002 
L 214.387129 107.734002 
L 214.387129 106.998654 
L 215.110168 106.998654 
L 215.110168 106.319391 
L 215.833208 106.319391 
L 215.833208 105.615201 
L 216.556248 105.615201 
L 216.556248 104.923475 
L 217.279287 104.923475 
L 217.279287 104.219286 
L 218.002327 104.219286 
L 218.002327 103.558718 
L 218.725366 103.558718 
L 218.725366 102.854529 
L 219.448406 102.854529 
L 219.448406 102.106716 
L 220.171446 102.106716 
L 220.171446 101.508467 
L 220.894485 101.508467 
L 220.894485 100.916449 
L 221.617525 100.916449 
L 221.617525 100.137478 
L 222.340564 100.137478 
L 222.340564 99.626473 
L 223.063604 99.626473 
L 223.063604 98.997065 
L 223.786644 98.997065 
L 223.786644 98.423742 
L 224.509683 98.423742 
L 224.509683 97.894042 
L 225.232723 97.894042 
L 225.232723 97.326951 
L 225.955762 97.326951 
L 225.955762 96.834642 
L 226.678802 96.834642 
L 226.678802 96.217697 
L 227.401842 96.217697 
L 227.401842 95.663069 
L 228.124881 95.663069 
L 228.124881 95.120906 
L 228.847921 95.120906 
L 228.847921 94.57251 
L 229.57096 94.57251 
L 229.57096 94.073969 
L 230.294 94.073969 
L 230.294 93.681367 
L 231.01704 93.681367 
L 231.01704 93.226448 
L 231.740079 93.226448 
L 231.740079 92.709212 
L 232.463119 92.709212 
L 232.463119 92.098499 
L 233.186158 92.098499 
L 233.186158 91.718361 
L 233.909198 91.718361 
L 233.909198 91.226051 
L 234.632238 91.226051 
L 234.632238 90.789828 
L 235.355277 90.789828 
L 235.355277 90.347372 
L 236.078317 90.347372 
L 236.078317 89.942307 
L 236.801356 89.942307 
L 236.801356 89.375216 
L 237.524396 89.375216 
L 237.524396 88.914066 
L 238.247436 88.914066 
L 238.247436 88.390597 
L 238.970475 88.390597 
L 238.970475 88.041618 
L 239.693515 88.041618 
L 239.693515 87.649017 
L 240.416554 87.649017 
L 240.416554 87.169171 
L 241.139594 87.169171 
L 241.139594 86.857583 
L 241.862634 86.857583 
L 241.862634 86.471213 
L 242.585673 86.471213 
L 242.585673 86.103539 
L 243.308713 86.103539 
L 243.308713 85.779487 
L 244.031752 85.779487 
L 244.031752 85.486594 
L 244.754792 85.486594 
L 244.754792 85.112688 
L 245.477832 85.112688 
L 245.477832 84.776172 
L 246.200871 84.776172 
L 246.200871 84.439657 
L 246.923911 84.439657 
L 246.923911 84.084446 
L 247.64695 84.084446 
L 247.64695 83.747931 
L 248.36999 83.747931 
L 248.36999 83.442574 
L 249.09303 83.442574 
L 249.09303 83.062436 
L 249.816069 83.062436 
L 249.816069 82.750848 
L 250.539109 82.750848 
L 250.539109 82.470419 
L 251.262149 82.470419 
L 251.262149 82.208684 
L 251.985188 82.208684 
L 251.985188 81.953182 
L 252.708228 81.953182 
L 252.708228 81.654057 
L 253.431267 81.654057 
L 253.431267 81.411018 
L 254.154307 81.411018 
L 254.154307 81.118125 
L 254.877347 81.118125 
L 254.877347 80.875086 
L 255.600386 80.875086 
L 255.600386 80.650743 
L 256.323426 80.650743 
L 256.323426 80.451326 
L 257.046465 80.451326 
L 257.046465 80.233214 
L 257.769505 80.233214 
L 257.769505 79.977712 
L 258.492545 79.977712 
L 258.492545 79.778295 
L 259.215584 79.778295 
L 259.215584 79.659892 
L 259.938624 79.659892 
L 259.938624 79.423084 
L 260.661663 79.423084 
L 260.661663 79.248595 
L 261.384703 79.248595 
L 261.384703 79.036715 
L 262.107743 79.036715 
L 262.107743 78.874689 
L 262.830782 78.874689 
L 262.830782 78.675272 
L 263.553822 78.675272 
L 263.553822 78.413538 
L 264.276861 78.413538 
L 264.276861 78.263976 
L 264.999901 78.263976 
L 264.999901 78.114413 
L 265.722941 78.114413 
L 265.722941 77.933692 
L 266.44598 77.933692 
L 266.44598 77.809057 
L 267.16902 77.809057 
L 267.16902 77.622104 
L 267.892059 77.622104 
L 267.892059 77.435151 
L 268.615099 77.435151 
L 268.615099 77.217039 
L 269.338139 77.217039 
L 269.338139 77.030086 
L 270.061178 77.030086 
L 270.061178 76.880523 
L 270.784218 76.880523 
L 270.784218 76.737193 
L 271.507257 76.737193 
L 271.507257 76.575167 
L 272.953337 76.475459 
L 272.953337 76.344592 
L 273.676376 76.344592 
L 273.676376 76.145175 
L 274.399416 76.145175 
L 274.399416 76.008076 
L 275.122455 76.008076 
L 275.122455 75.877209 
L 275.845495 75.877209 
L 275.845495 75.758805 
L 277.291574 75.659097 
L 277.291574 75.503303 
L 278.014614 75.503303 
L 278.014614 75.372436 
L 278.737653 75.372436 
L 278.737653 75.179251 
L 280.183733 75.073311 
L 280.183733 74.917517 
L 280.906772 74.917517 
L 280.906772 74.792882 
L 281.629812 74.792882 
L 281.629812 74.668246 
L 283.075891 74.581001 
L 283.075891 74.493757 
L 283.798931 74.493757 
L 283.798931 74.369121 
L 285.24501 74.281877 
L 285.24501 74.163473 
L 285.96805 74.163473 
L 285.96805 74.045069 
L 286.691089 74.045069 
L 286.691089 73.926666 
L 288.137168 73.864348 
L 288.137168 73.802031 
L 289.583248 73.721018 
L 289.583248 73.621309 
L 291.029327 73.534065 
L 291.029327 73.453052 
L 292.475406 73.390734 
L 292.475406 73.303489 
L 293.198446 73.303489 
L 293.198446 73.191317 
L 293.921485 73.191317 
L 293.921485 73.066682 
L 294.644525 73.066682 
L 294.644525 72.95451 
L 296.090604 72.879729 
L 296.090604 72.798716 
L 297.536683 72.717703 
L 297.536683 72.680312 
L 298.982762 72.5993 
L 298.982762 72.543214 
L 300.428842 72.480896 
L 300.428842 72.418578 
L 301.874921 72.356261 
L 301.874921 72.300175 
L 303.321 72.244089 
L 303.321 72.169308 
L 304.767079 72.082063 
L 304.767079 72.032209 
L 306.936198 71.926269 
L 306.936198 71.832792 
L 308.382277 71.78917 
L 308.382277 71.72062 
L 310.551396 71.627144 
L 310.551396 71.539899 
L 312.720515 71.433959 
L 312.720515 71.371641 
L 314.166594 71.303092 
L 314.166594 71.25947 
L 316.335713 71.159761 
L 316.335713 71.116139 
L 318.504832 71.010199 
L 318.504832 70.972808 
L 320.67395 70.904259 
L 320.67395 70.841941 
L 323.566109 70.748465 
L 323.566109 70.673684 
L 325.012188 70.592671 
L 325.012188 70.536585 
L 326.458267 70.480499 
L 326.458267 70.424413 
L 329.350426 70.330936 
L 329.350426 70.312241 
L 332.242584 70.206301 
L 332.242584 70.187606 
L 335.857782 70.081666 
L 335.857782 70.069202 
L 338.749941 69.988189 
L 338.749941 69.944567 
L 341.642099 69.838627 
L 341.642099 69.807468 
L 344.534257 69.720223 
L 344.534257 69.695296 
L 346.703376 69.620515 
L 346.703376 69.583124 
L 350.318574 69.483416 
L 350.318574 69.452257 
L 353.210733 69.358781 
L 353.210733 69.32139 
L 357.54897 69.21545 
L 357.54897 69.178059 
L 361.887208 69.072119 
L 361.887208 69.040961 
L 365.502406 68.959948 
L 365.502406 68.928789 
L 369.840644 68.835312 
L 369.840644 68.785458 
L 373.455842 68.679518 
L 373.455842 68.667055 
L 378.517119 68.567346 
L 378.517119 68.536187 
L 382.855356 68.436479 
L 382.855356 68.417784 
L 387.193594 68.349234 
L 387.193594 68.29938 
L 392.254871 68.205904 
L 392.254871 68.174745 
L 396.593109 68.075037 
L 396.593109 68.062573 
L 403.823505 67.956633 
L 403.823505 67.950401 
L 408.161743 67.856925 
L 408.161743 67.83823 
L 416.115178 67.732289 
L 416.115178 67.713594 
L 426.960772 67.607654 
L 426.960772 67.601422 
L 439.252446 67.495482 
L 439.252446 67.489251 
L 451.544119 67.383311 
L 451.544119 67.377079 
L 469.620109 67.271139 
L 469.620109 67.264907 
L 488.419139 67.158967 
L 488.419139 67.152735 
L 500.710812 67.059259 
L 500.710812 67.040563 
L 518.786802 66.934623 
L 518.786802 66.928392 
L 549.877505 66.822451 
L 549.877505 66.81622 
L 578.799089 66.71028 
L 578.799089 66.704048 
L 596.15204 66.598108 
L 596.15204 66.591876 
L 617.843228 66.485936 
L 617.843228 66.479704 
L 643.149614 66.379996 
L 643.149614 66.367532 
L 669.902079 66.261592 
L 669.902079 66.255361 
L 688.701109 66.149421 
L 688.701109 66.136957 
L 716.176614 66.031017 
L 716.176614 66.024785 
L 745.821238 65.925077 
L 745.821238 65.912613 
L 782.696257 65.806673 
L 782.696257 65.79421 
L 802.941366 65.68827 
L 802.941366 65.682038 
L 821.740396 65.576098 
L 821.740396 65.569866 
L 848.492861 65.463926 
L 848.492861 65.457694 
L 865 65.376682 
L 865 65.376682 
" style="fill:none;stroke:#000000;stroke-linejoin:miter;stroke-width:2;"/>
   </g>
   <g id="patch_4">
    <path clip-path="url(#pd47c06acd1)" d="M 91.470396 425.641366 
L 91.470396 423.366771 
L 92.193436 423.366771 
L 92.193436 421.004932 
L 92.916475 421.004932 
L 92.916475 418.730337 
L 93.639515 418.730337 
L 93.639515 416.293716 
L 94.362554 416.293716 
L 94.362554 413.919412 
L 95.085594 413.919412 
L 95.085594 411.557573 
L 95.808634 411.557573 
L 95.808634 409.314137 
L 96.531673 409.314137 
L 96.531673 407.226495 
L 97.254713 407.226495 
L 97.254713 404.827264 
L 97.977752 404.827264 
L 97.977752 402.384412 
L 98.700792 402.384412 
L 98.700792 399.97895 
L 99.423832 399.97895 
L 99.423832 397.679428 
L 100.146871 397.679428 
L 100.146871 395.367442 
L 100.869911 395.367442 
L 100.869911 392.880967 
L 101.59295 392.880967 
L 101.59295 390.550286 
L 102.31599 390.550286 
L 102.31599 388.175983 
L 103.03903 388.175983 
L 103.03903 385.876461 
L 103.762069 385.876461 
L 103.762069 383.389986 
L 104.485109 383.389986 
L 104.485109 380.785107 
L 105.208149 380.785107 
L 105.208149 378.39834 
L 105.931188 378.39834 
L 105.931188 375.99911 
L 106.654228 375.99911 
L 106.654228 373.817992 
L 107.377267 373.817992 
L 107.377267 371.424993 
L 108.100307 371.424993 
L 108.100307 369.044458 
L 108.823347 369.044458 
L 108.823347 366.875803 
L 109.546386 366.875803 
L 109.546386 364.781929 
L 110.269426 364.781929 
L 110.269426 362.451248 
L 110.992465 362.451248 
L 110.992465 360.120568 
L 111.715505 360.120568 
L 111.715505 357.708874 
L 112.438545 357.708874 
L 112.438545 355.197472 
L 113.161584 355.197472 
L 113.161584 352.873022 
L 113.884624 352.873022 
L 113.884624 350.523646 
L 114.607663 350.523646 
L 114.607663 348.012244 
L 115.330703 348.012244 
L 115.330703 345.500842 
L 116.053743 345.500842 
L 116.053743 343.226247 
L 116.776782 343.226247 
L 116.776782 340.683686 
L 117.499822 340.683686 
L 117.499822 338.421555 
L 118.222861 338.421555 
L 118.222861 335.878994 
L 118.945901 335.878994 
L 118.945901 333.760193 
L 119.668941 333.760193 
L 119.668941 331.622697 
L 120.39198 331.622697 
L 120.39198 329.267089 
L 121.11502 329.267089 
L 121.11502 326.973799 
L 121.838059 326.973799 
L 121.838059 324.599495 
L 122.561099 324.599495 
L 122.561099 322.281278 
L 123.284139 322.281278 
L 123.284139 319.888279 
L 124.007178 319.888279 
L 124.007178 317.557599 
L 124.730218 317.557599 
L 124.730218 315.401407 
L 125.453257 315.401407 
L 125.453257 313.157971 
L 126.176297 313.157971 
L 126.176297 310.677728 
L 126.899337 310.677728 
L 126.899337 308.21618 
L 127.622376 308.21618 
L 127.622376 305.85434 
L 128.345416 305.85434 
L 128.345416 303.604672 
L 129.068455 303.604672 
L 129.068455 301.273991 
L 129.791495 301.273991 
L 129.791495 299.142727 
L 130.514535 299.142727 
L 130.514535 296.899291 
L 131.237574 296.899291 
L 131.237574 294.599769 
L 131.960614 294.599769 
L 131.960614 292.094598 
L 132.683653 292.094598 
L 132.683653 289.801308 
L 133.406693 289.801308 
L 133.406693 287.732362 
L 134.129733 287.732362 
L 134.129733 285.439071 
L 134.852772 285.439071 
L 134.852772 283.089695 
L 135.575812 283.089695 
L 135.575812 280.621915 
L 136.298851 280.621915 
L 136.298851 278.366016 
L 137.021891 278.366016 
L 137.021891 275.873309 
L 137.744931 275.873309 
L 137.744931 273.598714 
L 138.46797 273.598714 
L 138.46797 271.249338 
L 139.19101 271.249338 
L 139.19101 268.918657 
L 139.91405 268.918657 
L 139.91405 266.513195 
L 140.637089 266.513195 
L 140.637089 264.350772 
L 141.360129 264.350772 
L 141.360129 262.082408 
L 142.083168 262.082408 
L 142.083168 259.83274 
L 142.806208 259.83274 
L 142.806208 257.763794 
L 143.529248 257.763794 
L 143.529248 255.514126 
L 144.252287 255.514126 
L 144.252287 253.495033 
L 144.975327 253.495033 
L 144.975327 251.419855 
L 145.698366 251.419855 
L 145.698366 249.089174 
L 146.421406 249.089174 
L 146.421406 247.082545 
L 147.144446 247.082545 
L 147.144446 244.70201 
L 147.867485 244.70201 
L 147.867485 242.414952 
L 148.590525 242.414952 
L 148.590525 240.289919 
L 149.313564 240.289919 
L 149.313564 238.164886 
L 150.036604 238.164886 
L 150.036604 236.071013 
L 150.759644 236.071013 
L 150.759644 233.833808 
L 151.482683 233.833808 
L 151.482683 231.69008 
L 152.205723 231.69008 
L 152.205723 229.596207 
L 152.928762 229.596207 
L 152.928762 227.296685 
L 153.651802 227.296685 
L 153.651802 225.159189 
L 154.374842 225.159189 
L 154.374842 223.027924 
L 155.097881 223.027924 
L 155.097881 220.996368 
L 155.820921 220.996368 
L 155.820921 218.983507 
L 156.54396 218.983507 
L 156.54396 217.082819 
L 157.267 217.082819 
L 157.267 215.207057 
L 157.99004 215.207057 
L 157.99004 213.275209 
L 158.713079 213.275209 
L 158.713079 211.299739 
L 159.436119 211.299739 
L 159.436119 209.274414 
L 160.159158 209.274414 
L 160.159158 207.286481 
L 160.882198 207.286481 
L 160.882198 205.261156 
L 161.605238 205.261156 
L 161.605238 203.429017 
L 162.328277 203.429017 
L 162.328277 201.484706 
L 163.051317 201.484706 
L 163.051317 199.721116 
L 163.774356 199.721116 
L 163.774356 197.920135 
L 164.497396 197.920135 
L 164.497396 195.851188 
L 165.220436 195.851188 
L 165.220436 193.962963 
L 165.943475 193.962963 
L 165.943475 191.950102 
L 166.666515 191.950102 
L 166.666515 190.14289 
L 167.389554 190.14289 
L 167.389554 188.292055 
L 168.112594 188.292055 
L 168.112594 186.391366 
L 168.835634 186.391366 
L 168.835634 184.665166 
L 169.558673 184.665166 
L 169.558673 182.95143 
L 170.281713 182.95143 
L 170.281713 181.206536 
L 171.004752 181.206536 
L 171.004752 179.486568 
L 171.727792 179.486568 
L 171.727792 177.797759 
L 172.450832 177.797759 
L 172.450832 176.090255 
L 173.173871 176.090255 
L 173.173871 174.494923 
L 173.896911 174.494923 
L 173.896911 172.675247 
L 174.61995 172.675247 
L 174.61995 171.036292 
L 175.34299 171.036292 
L 175.34299 169.440959 
L 176.06603 169.440959 
L 176.06603 167.733455 
L 176.789069 167.733455 
L 176.789069 166.244063 
L 177.512109 166.244063 
L 177.512109 164.704816 
L 178.235149 164.704816 
L 178.235149 163.252815 
L 178.958188 163.252815 
L 178.958188 161.701105 
L 179.681228 161.701105 
L 179.681228 160.230408 
L 180.404267 160.230408 
L 180.404267 158.522904 
L 181.127307 158.522904 
L 181.127307 156.715691 
L 181.850347 156.715691 
L 181.850347 155.182676 
L 182.573386 155.182676 
L 182.573386 153.674589 
L 183.296426 153.674589 
L 183.296426 152.048098 
L 184.019465 152.048098 
L 184.019465 150.801744 
L 184.742505 150.801744 
L 184.742505 149.567854 
L 185.465545 149.567854 
L 185.465545 148.259183 
L 186.188584 148.259183 
L 186.188584 147.006598 
L 186.911624 147.006598 
L 186.911624 145.722854 
L 187.634663 145.722854 
L 187.634663 144.482732 
L 188.357703 144.482732 
L 188.357703 143.186525 
L 189.080743 143.186525 
L 189.080743 141.909013 
L 189.803782 141.909013 
L 189.803782 140.675123 
L 190.526822 140.675123 
L 190.526822 139.447465 
L 191.249861 139.447465 
L 191.249861 138.319515 
L 191.972901 138.319515 
L 191.972901 137.116784 
L 192.695941 137.116784 
L 192.695941 135.907821 
L 193.41898 135.907821 
L 193.41898 134.536832 
L 194.14202 134.536832 
L 194.14202 133.489895 
L 194.865059 133.489895 
L 194.865059 132.293396 
L 195.588099 132.293396 
L 195.588099 131.2153 
L 196.311139 131.2153 
L 196.311139 130.1559 
L 197.034178 130.1559 
L 197.034178 128.940705 
L 197.757218 128.940705 
L 197.757218 127.943623 
L 198.480257 127.943623 
L 198.480257 126.909149 
L 199.203297 126.909149 
L 199.203297 125.731345 
L 199.926337 125.731345 
L 199.926337 124.784117 
L 200.649376 124.784117 
L 200.649376 123.712253 
L 201.372416 123.712253 
L 201.372416 122.659084 
L 202.095455 122.659084 
L 202.095455 121.605916 
L 202.818495 121.605916 
L 202.818495 120.758395 
L 203.541535 120.758395 
L 203.541535 119.767544 
L 204.264574 119.767544 
L 204.264574 118.938719 
L 204.987614 118.938719 
L 204.987614 117.922941 
L 205.710653 117.922941 
L 205.710653 117.094116 
L 206.433693 117.094116 
L 206.433693 116.128192 
L 207.156733 116.128192 
L 207.156733 115.261977 
L 207.879772 115.261977 
L 207.879772 114.327212 
L 208.602812 114.327212 
L 208.602812 113.598095 
L 209.325851 113.598095 
L 209.325851 112.682025 
L 210.048891 112.682025 
L 210.048891 111.878127 
L 210.771931 111.878127 
L 210.771931 110.955826 
L 211.49497 110.955826 
L 211.49497 110.201782 
L 212.21801 110.201782 
L 212.21801 109.304407 
L 212.94105 109.304407 
L 212.94105 108.550364 
L 213.664089 108.550364 
L 213.664089 107.734002 
L 214.387129 107.734002 
L 214.387129 106.998654 
L 215.110168 106.998654 
L 215.110168 106.319391 
L 215.833208 106.319391 
L 215.833208 105.615201 
L 216.556248 105.615201 
L 216.556248 104.923475 
L 217.279287 104.923475 
L 217.279287 104.219286 
L 218.002327 104.219286 
L 218.002327 103.558718 
L 218.725366 103.558718 
L 218.725366 102.854529 
L 219.448406 102.854529 
L 219.448406 102.106716 
L 220.171446 102.106716 
L 220.171446 101.508467 
L 220.894485 101.508467 
L 220.894485 100.916449 
L 221.617525 100.916449 
L 221.617525 100.137478 
L 222.340564 100.137478 
L 222.340564 99.626473 
L 223.063604 99.626473 
L 223.063604 98.997065 
L 223.786644 98.997065 
L 223.786644 98.423742 
L 224.509683 98.423742 
L 224.509683 97.894042 
L 225.232723 97.894042 
L 225.232723 97.326951 
L 225.955762 97.326951 
L 225.955762 96.834642 
L 226.678802 96.834642 
L 226.678802 96.217697 
L 227.401842 96.217697 
L 227.401842 95.663069 
L 228.124881 95.663069 
L 228.124881 95.120906 
L 228.847921 95.120906 
L 228.847921 94.57251 
L 229.57096 94.57251 
L 229.57096 94.073969 
L 230.294 94.073969 
L 230.294 93.681367 
L 231.01704 93.681367 
L 231.01704 93.226448 
L 231.740079 93.226448 
L 231.740079 92.709212 
L 232.463119 92.709212 
L 232.463119 92.098499 
L 233.186158 92.098499 
L 233.186158 91.718361 
L 233.909198 91.718361 
L 233.909198 91.226051 
L 234.632238 91.226051 
L 234.632238 90.789828 
L 235.355277 90.789828 
L 235.355277 90.347372 
L 236.078317 90.347372 
L 236.078317 89.942307 
L 236.801356 89.942307 
L 236.801356 89.375216 
L 237.524396 89.375216 
L 237.524396 88.914066 
L 238.247436 88.914066 
L 238.247436 88.390597 
L 238.970475 88.390597 
L 238.970475 88.041618 
L 239.693515 88.041618 
L 239.693515 87.649017 
L 240.416554 87.649017 
L 240.416554 87.169171 
L 241.139594 87.169171 
L 241.139594 86.857583 
L 241.862634 86.857583 
L 241.862634 86.471213 
L 242.585673 86.471213 
L 242.585673 86.103539 
L 243.308713 86.103539 
L 243.308713 85.779487 
L 244.031752 85.779487 
L 244.031752 85.486594 
L 244.754792 85.486594 
L 244.754792 85.112688 
L 245.477832 85.112688 
L 245.477832 84.776172 
L 246.200871 84.776172 
L 246.200871 84.439657 
L 246.923911 84.439657 
L 246.923911 84.084446 
L 247.64695 84.084446 
L 247.64695 83.747931 
L 248.36999 83.747931 
L 248.36999 83.442574 
L 249.09303 83.442574 
L 249.09303 83.062436 
L 249.816069 83.062436 
L 249.816069 82.750848 
L 250.539109 82.750848 
L 250.539109 82.470419 
L 251.262149 82.470419 
L 251.262149 82.208684 
L 251.985188 82.208684 
L 251.985188 81.953182 
L 252.708228 81.953182 
L 252.708228 81.654057 
L 253.431267 81.654057 
L 253.431267 81.411018 
L 254.154307 81.411018 
L 254.154307 81.118125 
L 254.877347 81.118125 
L 254.877347 80.875086 
L 255.600386 80.875086 
L 255.600386 80.650743 
L 256.323426 80.650743 
L 256.323426 80.451326 
L 257.046465 80.451326 
L 257.046465 80.233214 
L 257.769505 80.233214 
L 257.769505 79.977712 
L 258.492545 79.977712 
L 258.492545 79.778295 
L 259.215584 79.778295 
L 259.215584 79.659892 
L 259.938624 79.659892 
L 259.938624 79.423084 
L 260.661663 79.423084 
L 260.661663 79.248595 
L 261.384703 79.248595 
L 261.384703 79.036715 
L 262.107743 79.036715 
L 262.107743 78.874689 
L 262.830782 78.874689 
L 262.830782 78.675272 
L 263.553822 78.675272 
L 263.553822 78.413538 
L 264.276861 78.413538 
L 264.276861 78.263976 
L 264.999901 78.263976 
L 264.999901 78.114413 
L 265.722941 78.114413 
L 265.722941 77.933692 
L 266.44598 77.933692 
L 266.44598 77.809057 
L 267.16902 77.809057 
L 267.16902 77.622104 
L 267.892059 77.622104 
L 267.892059 77.435151 
L 268.615099 77.435151 
L 268.615099 77.217039 
L 269.338139 77.217039 
L 269.338139 77.030086 
L 270.061178 77.030086 
L 270.061178 76.880523 
L 270.784218 76.880523 
L 270.784218 76.737193 
L 271.507257 76.737193 
L 271.507257 76.575167 
L 272.953337 76.475459 
L 272.953337 76.344592 
L 273.676376 76.344592 
L 273.676376 76.145175 
L 274.399416 76.145175 
L 274.399416 76.008076 
L 275.122455 76.008076 
L 275.122455 75.877209 
L 275.845495 75.877209 
L 275.845495 75.758805 
L 277.291574 75.659097 
L 277.291574 75.503303 
L 278.014614 75.503303 
L 278.014614 75.372436 
L 278.737653 75.372436 
L 278.737653 75.179251 
L 280.183733 75.073311 
L 280.183733 74.917517 
L 280.906772 74.917517 
L 280.906772 74.792882 
L 281.629812 74.792882 
L 281.629812 74.668246 
L 283.075891 74.581001 
L 283.075891 74.493757 
L 283.798931 74.493757 
L 283.798931 74.369121 
L 285.24501 74.281877 
L 285.24501 74.163473 
L 285.96805 74.163473 
L 285.96805 74.045069 
L 286.691089 74.045069 
L 286.691089 73.926666 
L 288.137168 73.864348 
L 288.137168 73.802031 
L 289.583248 73.721018 
L 289.583248 73.621309 
L 291.029327 73.534065 
L 291.029327 73.453052 
L 292.475406 73.390734 
L 292.475406 73.303489 
L 293.198446 73.303489 
L 293.198446 73.191317 
L 293.921485 73.191317 
L 293.921485 73.066682 
L 294.644525 73.066682 
L 294.644525 72.95451 
L 296.090604 72.879729 
L 296.090604 72.798716 
L 297.536683 72.717703 
L 297.536683 72.680312 
L 298.982762 72.5993 
L 298.982762 72.543214 
L 300.428842 72.480896 
L 300.428842 72.418578 
L 301.874921 72.356261 
L 301.874921 72.300175 
L 303.321 72.244089 
L 303.321 72.169308 
L 304.767079 72.082063 
L 304.767079 72.032209 
L 306.936198 71.926269 
L 306.936198 71.832792 
L 308.382277 71.78917 
L 308.382277 71.72062 
L 310.551396 71.627144 
L 310.551396 71.539899 
L 312.720515 71.433959 
L 312.720515 71.371641 
L 314.166594 71.303092 
L 314.166594 71.25947 
L 316.335713 71.159761 
L 316.335713 71.116139 
L 318.504832 71.010199 
L 318.504832 70.972808 
L 320.67395 70.904259 
L 320.67395 70.841941 
L 323.566109 70.748465 
L 323.566109 70.673684 
L 325.012188 70.592671 
L 325.012188 70.536585 
L 326.458267 70.480499 
L 326.458267 70.424413 
L 329.350426 70.330936 
L 329.350426 70.312241 
L 332.242584 70.206301 
L 332.242584 70.187606 
L 335.857782 70.081666 
L 335.857782 70.069202 
L 338.749941 69.988189 
L 338.749941 69.944567 
L 341.642099 69.838627 
L 341.642099 69.807468 
L 344.534257 69.720223 
L 344.534257 69.695296 
L 346.703376 69.620515 
L 346.703376 69.583124 
L 350.318574 69.483416 
L 350.318574 69.452257 
L 353.210733 69.358781 
L 353.210733 69.32139 
L 357.54897 69.21545 
L 357.54897 69.178059 
L 361.887208 69.072119 
L 361.887208 69.040961 
L 365.502406 68.959948 
L 365.502406 68.928789 
L 369.840644 68.835312 
L 369.840644 68.785458 
L 373.455842 68.679518 
L 373.455842 68.667055 
L 378.517119 68.567346 
L 378.517119 68.536187 
L 382.855356 68.436479 
L 382.855356 68.417784 
L 387.193594 68.349234 
L 387.193594 68.29938 
L 392.254871 68.205904 
L 392.254871 68.174745 
L 396.593109 68.075037 
L 396.593109 68.062573 
L 403.823505 67.956633 
L 403.823505 67.950401 
L 408.161743 67.856925 
L 408.161743 67.83823 
L 416.115178 67.732289 
L 416.115178 67.713594 
L 426.960772 67.607654 
L 426.960772 67.601422 
L 439.252446 67.495482 
L 439.252446 67.489251 
L 451.544119 67.383311 
L 451.544119 67.377079 
L 469.620109 67.271139 
L 469.620109 67.264907 
L 488.419139 67.158967 
L 488.419139 67.152735 
L 500.710812 67.059259 
L 500.710812 67.040563 
L 518.786802 66.934623 
L 518.786802 66.928392 
L 549.877505 66.822451 
L 549.877505 66.81622 
L 578.799089 66.71028 
L 578.799089 66.704048 
L 596.15204 66.598108 
L 596.15204 66.591876 
L 617.843228 66.485936 
L 617.843228 66.479704 
L 643.149614 66.379996 
L 643.149614 66.367532 
L 669.902079 66.261592 
L 669.902079 66.255361 
L 688.701109 66.149421 
L 688.701109 66.136957 
L 716.176614 66.031017 
L 716.176614 66.024785 
L 745.821238 65.925077 
L 745.821238 65.912613 
L 782.696257 65.806673 
L 782.696257 65.79421 
L 802.941366 65.68827 
L 802.941366 65.682038 
L 821.740396 65.576098 
L 821.740396 65.569866 
L 848.492861 65.463926 
L 848.492861 65.457694 
L 865 65.376682 
L 865 65.376682 
" style="fill:none;stroke:#008000;stroke-dasharray:5.55,2.4;stroke-dashoffset:0;stroke-linejoin:miter;stroke-width:1.5;"/>
   </g>
   <g id="matplotlib.axis_1">
    <g id="xtick_1">
     <g id="line2d_1">
      <defs>
       <path d="M 0 0 
L 0 12 
" id="mdffd290d1d" style="stroke:#000000;stroke-width:0.8;"/>
      </defs>
      <g>
       <use style="stroke:#000000;stroke-width:0.8;" x="91.470396" xlink:href="#mdffd290d1d" y="425.641366"/>
      </g>
     </g>
     <g id="text_1">
      <!-- 0.0 -->
      <defs>
       <path d="M 31.78125 66.40625 
Q 24.171875 66.40625 20.328125 58.90625 
Q 16.5 51.421875 16.5 36.375 
Q 16.5 21.390625 20.328125 13.890625 
Q 24.171875 6.390625 31.78125 6.390625 
Q 39.453125 6.390625 43.28125 13.890625 
Q 47.125 21.390625 47.125 36.375 
Q 47.125 51.421875 43.28125 58.90625 
Q 39.453125 66.40625 31.78125 66.40625 
z
M 31.78125 74.21875 
Q 44.046875 74.21875 50.515625 64.515625 
Q 56.984375 54.828125 56.984375 36.375 
Q 56.984375 17.96875 50.515625 8.265625 
Q 44.046875 -1.421875 31.78125 -1.421875 
Q 19.53125 -1.421875 13.0625 8.265625 
Q 6.59375 17.96875 6.59375 36.375 
Q 6.59375 54.828125 13.0625 64.515625 
Q 19.53125 74.21875 31.78125 74.21875 
z
" id="DejaVuSans-48"/>
       <path d="M 10.6875 12.40625 
L 21 12.40625 
L 21 0 
L 10.6875 0 
z
" id="DejaVuSans-46"/>
      </defs>
      <g transform="translate(72.386646 459.377616)scale(0.24 -0.24)">
       <use xlink:href="#DejaVuSans-48"/>
       <use x="63.623047" xlink:href="#DejaVuSans-46"/>
       <use x="95.410156" xlink:href="#DejaVuSans-48"/>
      </g>
     </g>
    </g>
    <g id="xtick_2">
     <g id="line2d_2">
      <g>
       <use style="stroke:#000000;stroke-width:0.8;" x="452.990198" xlink:href="#mdffd290d1d" y="425.641366"/>
      </g>
     </g>
     <g id="text_2">
      <!-- 0.5 -->
      <defs>
       <path d="M 10.796875 72.90625 
L 49.515625 72.90625 
L 49.515625 64.59375 
L 19.828125 64.59375 
L 19.828125 46.734375 
Q 21.96875 47.46875 24.109375 47.828125 
Q 26.265625 48.1875 28.421875 48.1875 
Q 40.625 48.1875 47.75 41.5 
Q 54.890625 34.8125 54.890625 23.390625 
Q 54.890625 11.625 47.5625 5.09375 
Q 40.234375 -1.421875 26.90625 -1.421875 
Q 22.3125 -1.421875 17.546875 -0.640625 
Q 12.796875 0.140625 7.71875 1.703125 
L 7.71875 11.625 
Q 12.109375 9.234375 16.796875 8.0625 
Q 21.484375 6.890625 26.703125 6.890625 
Q 35.15625 6.890625 40.078125 11.328125 
Q 45.015625 15.765625 45.015625 23.390625 
Q 45.015625 31 40.078125 35.4375 
Q 35.15625 39.890625 26.703125 39.890625 
Q 22.75 39.890625 18.8125 39.015625 
Q 14.890625 38.140625 10.796875 36.28125 
z
" id="DejaVuSans-53"/>
      </defs>
      <g transform="translate(433.906448 459.377616)scale(0.24 -0.24)">
       <use xlink:href="#DejaVuSans-48"/>
       <use x="63.623047" xlink:href="#DejaVuSans-46"/>
       <use x="95.410156" xlink:href="#DejaVuSans-53"/>
      </g>
     </g>
    </g>
    <g id="xtick_3">
     <g id="line2d_3">
      <g>
       <use style="stroke:#000000;stroke-width:0.8;" x="814.51" xlink:href="#mdffd290d1d" y="425.641366"/>
      </g>
     </g>
     <g id="text_3">
      <!-- 1.0 -->
      <defs>
       <path d="M 12.40625 8.296875 
L 28.515625 8.296875 
L 28.515625 63.921875 
L 10.984375 60.40625 
L 10.984375 69.390625 
L 28.421875 72.90625 
L 38.28125 72.90625 
L 38.28125 8.296875 
L 54.390625 8.296875 
L 54.390625 0 
L 12.40625 0 
z
" id="DejaVuSans-49"/>
      </defs>
      <g transform="translate(795.42625 459.377616)scale(0.24 -0.24)">
       <use xlink:href="#DejaVuSans-49"/>
       <use x="63.623047" xlink:href="#DejaVuSans-46"/>
       <use x="95.410156" xlink:href="#DejaVuSans-48"/>
      </g>
     </g>
    </g>
    <g id="xtick_4">
     <g id="line2d_4">
      <defs>
       <path d="M 0 0 
L 0 8 
" id="m4d7936611f" style="stroke:#000000;stroke-width:0.6;"/>
      </defs>
      <g>
       <use style="stroke:#000000;stroke-width:0.6;" x="91.470396" xlink:href="#m4d7936611f" y="425.641366"/>
      </g>
     </g>
    </g>
    <g id="xtick_5">
     <g id="line2d_5">
      <g>
       <use style="stroke:#000000;stroke-width:0.6;" x="163.774356" xlink:href="#m4d7936611f" y="425.641366"/>
      </g>
     </g>
    </g>
    <g id="xtick_6">
     <g id="line2d_6">
      <g>
       <use style="stroke:#000000;stroke-width:0.6;" x="236.078317" xlink:href="#m4d7936611f" y="425.641366"/>
      </g>
     </g>
    </g>
    <g id="xtick_7">
     <g id="line2d_7">
      <g>
       <use style="stroke:#000000;stroke-width:0.6;" x="308.382277" xlink:href="#m4d7936611f" y="425.641366"/>
      </g>
     </g>
    </g>
    <g id="xtick_8">
     <g id="line2d_8">
      <g>
       <use style="stroke:#000000;stroke-width:0.6;" x="380.686238" xlink:href="#m4d7936611f" y="425.641366"/>
      </g>
     </g>
    </g>
    <g id="xtick_9">
     <g id="line2d_9">
      <g>
       <use style="stroke:#000000;stroke-width:0.6;" x="452.990198" xlink:href="#m4d7936611f" y="425.641366"/>
      </g>
     </g>
    </g>
    <g id="xtick_10">
     <g id="line2d_10">
      <g>
       <use style="stroke:#000000;stroke-width:0.6;" x="525.294158" xlink:href="#m4d7936611f" y="425.641366"/>
      </g>
     </g>
    </g>
    <g id="xtick_11">
     <g id="line2d_11">
      <g>
       <use style="stroke:#000000;stroke-width:0.6;" x="597.598119" xlink:href="#m4d7936611f" y="425.641366"/>
      </g>
     </g>
    </g>
    <g id="xtick_12">
     <g id="line2d_12">
      <g>
       <use style="stroke:#000000;stroke-width:0.6;" x="669.902079" xlink:href="#m4d7936611f" y="425.641366"/>
      </g>
     </g>
    </g>
    <g id="xtick_13">
     <g id="line2d_13">
      <g>
       <use style="stroke:#000000;stroke-width:0.6;" x="742.20604" xlink:href="#m4d7936611f" y="425.641366"/>
      </g>
     </g>
    </g>
    <g id="xtick_14">
     <g id="line2d_14">
      <g>
       <use style="stroke:#000000;stroke-width:0.6;" x="814.51" xlink:href="#m4d7936611f" y="425.641366"/>
      </g>
     </g>
    </g>
    <g id="text_4">
     <!-- $|t_{pred} - t_{actual}|$ -->
     <defs>
      <path d="M 21 76.421875 
L 21 -23.578125 
L 12.703125 -23.578125 
L 12.703125 76.421875 
z
" id="DejaVuSans-124"/>
      <path d="M 42.28125 54.6875 
L 40.921875 47.703125 
L 23 47.703125 
L 17.1875 18.015625 
Q 16.890625 16.359375 16.75 15.234375 
Q 16.609375 14.109375 16.609375 13.484375 
Q 16.609375 10.359375 18.484375 8.9375 
Q 20.359375 7.515625 24.515625 7.515625 
L 33.59375 7.515625 
L 32.078125 0 
L 23.484375 0 
Q 15.484375 0 11.546875 3.125 
Q 7.625 6.25 7.625 12.59375 
Q 7.625 13.71875 7.765625 15.0625 
Q 7.90625 16.40625 8.203125 18.015625 
L 14.015625 47.703125 
L 6.390625 47.703125 
L 7.8125 54.6875 
L 15.28125 54.6875 
L 18.3125 70.21875 
L 27.296875 70.21875 
L 24.3125 54.6875 
z
" id="DejaVuSans-Oblique-116"/>
      <path d="M 49.609375 33.6875 
Q 49.609375 40.875 46.484375 44.671875 
Q 43.359375 48.484375 37.5 48.484375 
Q 33.5 48.484375 29.859375 46.4375 
Q 26.21875 44.390625 23.390625 40.484375 
Q 20.609375 36.625 18.9375 31.15625 
Q 17.28125 25.6875 17.28125 20.3125 
Q 17.28125 13.484375 20.40625 9.796875 
Q 23.53125 6.109375 29.296875 6.109375 
Q 33.546875 6.109375 37.1875 8.109375 
Q 40.828125 10.109375 43.40625 13.921875 
Q 46.1875 17.921875 47.890625 23.34375 
Q 49.609375 28.765625 49.609375 33.6875 
z
M 21.78125 46.390625 
Q 25.390625 51.125 30.296875 53.5625 
Q 35.203125 56 41.21875 56 
Q 49.609375 56 54.25 50.5 
Q 58.890625 45.015625 58.890625 35.109375 
Q 58.890625 27 56 19.65625 
Q 53.125 12.3125 47.703125 6.5 
Q 44.09375 2.640625 39.546875 0.609375 
Q 35.015625 -1.421875 29.984375 -1.421875 
Q 24.171875 -1.421875 20.21875 1 
Q 16.265625 3.421875 14.3125 8.203125 
L 8.6875 -20.796875 
L -0.296875 -20.796875 
L 14.40625 54.6875 
L 23.390625 54.6875 
z
" id="DejaVuSans-Oblique-112"/>
      <path d="M 44.578125 46.390625 
Q 43.21875 47.125 41.453125 47.515625 
Q 39.703125 47.90625 37.703125 47.90625 
Q 30.515625 47.90625 25.140625 42.453125 
Q 19.78125 37.015625 18.015625 27.875 
L 12.5 0 
L 3.515625 0 
L 14.203125 54.6875 
L 23.1875 54.6875 
L 21.484375 46.1875 
Q 25.046875 50.921875 30 53.453125 
Q 34.96875 56 40.578125 56 
Q 42.046875 56 43.453125 55.828125 
Q 44.875 55.671875 46.296875 55.28125 
z
" id="DejaVuSans-Oblique-114"/>
      <path d="M 48.09375 32.234375 
Q 48.25 33.015625 48.3125 33.84375 
Q 48.390625 34.671875 48.390625 35.5 
Q 48.390625 41.453125 44.890625 44.921875 
Q 41.40625 48.390625 35.40625 48.390625 
Q 28.71875 48.390625 23.578125 44.15625 
Q 18.453125 39.9375 15.828125 32.171875 
z
M 55.90625 25.203125 
L 14.109375 25.203125 
Q 13.8125 23.34375 13.71875 22.265625 
Q 13.625 21.1875 13.625 20.40625 
Q 13.625 13.625 17.796875 9.90625 
Q 21.96875 6.203125 29.59375 6.203125 
Q 35.453125 6.203125 40.671875 7.515625 
Q 45.90625 8.84375 50.390625 11.375 
L 48.6875 2.484375 
Q 43.84375 0.53125 38.6875 -0.4375 
Q 33.546875 -1.421875 28.21875 -1.421875 
Q 16.84375 -1.421875 10.71875 4.015625 
Q 4.59375 9.46875 4.59375 19.484375 
Q 4.59375 28.03125 7.640625 35.375 
Q 10.6875 42.71875 16.609375 48.484375 
Q 20.40625 52.09375 25.65625 54.046875 
Q 30.90625 56 36.8125 56 
Q 46.09375 56 51.578125 50.4375 
Q 57.078125 44.875 57.078125 35.5 
Q 57.078125 33.25 56.78125 30.6875 
Q 56.5 28.125 55.90625 25.203125 
z
" id="DejaVuSans-Oblique-101"/>
      <path d="M 41.796875 8.203125 
Q 38.1875 3.46875 33.25 1.015625 
Q 28.328125 -1.421875 22.3125 -1.421875 
Q 14.109375 -1.421875 9.34375 4.171875 
Q 4.59375 9.765625 4.59375 19.484375 
Q 4.59375 27.59375 7.46875 34.9375 
Q 10.359375 42.28125 15.828125 48.09375 
Q 19.4375 51.953125 23.96875 53.96875 
Q 28.515625 56 33.5 56 
Q 38.765625 56 42.796875 53.453125 
Q 46.828125 50.921875 49.03125 46.1875 
L 54.890625 75.984375 
L 63.921875 75.984375 
L 49.125 0 
L 40.09375 0 
z
M 13.921875 21.09375 
Q 13.921875 14.015625 17.109375 10.0625 
Q 20.3125 6.109375 25.984375 6.109375 
Q 30.171875 6.109375 33.765625 8.125 
Q 37.359375 10.15625 40.09375 14.109375 
Q 42.96875 18.21875 44.625 23.578125 
Q 46.296875 28.953125 46.296875 34.1875 
Q 46.296875 40.96875 43.09375 44.765625 
Q 39.890625 48.578125 34.28125 48.578125 
Q 30.03125 48.578125 26.359375 46.578125 
Q 22.703125 44.578125 20.125 40.828125 
Q 17.28125 36.765625 15.59375 31.390625 
Q 13.921875 26.03125 13.921875 21.09375 
z
" id="DejaVuSans-Oblique-100"/>
      <path d="M 10.59375 35.5 
L 73.1875 35.5 
L 73.1875 27.203125 
L 10.59375 27.203125 
z
" id="DejaVuSans-8722"/>
      <path d="M 53.71875 31.203125 
L 47.609375 0 
L 38.625 0 
L 40.28125 8.296875 
Q 36.328125 3.421875 31.265625 1 
Q 26.21875 -1.421875 20.015625 -1.421875 
Q 13.03125 -1.421875 8.5625 2.84375 
Q 4.109375 7.125 4.109375 13.8125 
Q 4.109375 23.390625 11.75 28.953125 
Q 19.390625 34.515625 32.8125 34.515625 
L 45.3125 34.515625 
L 45.796875 36.921875 
Q 45.90625 37.3125 45.953125 37.765625 
Q 46 38.234375 46 39.203125 
Q 46 43.5625 42.453125 45.96875 
Q 38.921875 48.390625 32.515625 48.390625 
Q 28.125 48.390625 23.5 47.265625 
Q 18.890625 46.140625 14.015625 43.890625 
L 15.578125 52.203125 
Q 20.65625 54.109375 25.515625 55.046875 
Q 30.375 56 34.90625 56 
Q 44.578125 56 49.625 51.796875 
Q 54.6875 47.609375 54.6875 39.59375 
Q 54.6875 37.984375 54.4375 35.8125 
Q 54.203125 33.640625 53.71875 31.203125 
z
M 44 27.484375 
L 35.015625 27.484375 
Q 23.96875 27.484375 18.671875 24.53125 
Q 13.375 21.578125 13.375 15.375 
Q 13.375 11.078125 16.078125 8.640625 
Q 18.796875 6.203125 23.578125 6.203125 
Q 30.90625 6.203125 36.375 11.453125 
Q 41.84375 16.703125 43.609375 25.484375 
z
" id="DejaVuSans-Oblique-97"/>
      <path d="M 53.609375 52.59375 
L 51.8125 43.703125 
Q 48.578125 46.046875 44.9375 47.21875 
Q 41.3125 48.390625 37.40625 48.390625 
Q 33.109375 48.390625 29.21875 46.875 
Q 25.34375 45.359375 22.703125 42.578125 
Q 18.5 38.328125 16.203125 32.609375 
Q 13.921875 26.90625 13.921875 20.796875 
Q 13.921875 13.421875 17.609375 9.8125 
Q 21.296875 6.203125 28.8125 6.203125 
Q 32.515625 6.203125 36.6875 7.328125 
Q 40.875 8.453125 45.40625 10.6875 
L 43.703125 1.8125 
Q 39.796875 0.203125 35.671875 -0.609375 
Q 31.546875 -1.421875 27.203125 -1.421875 
Q 16.3125 -1.421875 10.453125 4.015625 
Q 4.59375 9.46875 4.59375 19.578125 
Q 4.59375 28.078125 7.640625 35.234375 
Q 10.6875 42.390625 16.703125 48.09375 
Q 20.796875 52 26.3125 54 
Q 31.84375 56 38.375 56 
Q 42.1875 56 45.9375 55.140625 
Q 49.703125 54.296875 53.609375 52.59375 
z
" id="DejaVuSans-Oblique-99"/>
      <path d="M 6.6875 21.6875 
L 13.09375 54.6875 
L 22.125 54.6875 
L 15.71875 22.015625 
Q 15.234375 19.625 15.015625 17.921875 
Q 14.796875 16.21875 14.796875 15.09375 
Q 14.796875 10.9375 17.328125 8.65625 
Q 19.875 6.390625 24.515625 6.390625 
Q 31.734375 6.390625 37 11.265625 
Q 42.28125 16.15625 43.890625 24.421875 
L 49.90625 54.6875 
L 58.890625 54.6875 
L 48.296875 0 
L 39.3125 0 
L 41.109375 8.59375 
Q 37.3125 3.8125 32.0625 1.1875 
Q 26.8125 -1.421875 20.90625 -1.421875 
Q 13.71875 -1.421875 9.71875 2.515625 
Q 5.71875 6.453125 5.71875 13.484375 
Q 5.71875 14.9375 5.953125 17.140625 
Q 6.203125 19.34375 6.6875 21.6875 
z
" id="DejaVuSans-Oblique-117"/>
      <path d="M 18.3125 75.984375 
L 27.296875 75.984375 
L 12.5 0 
L 3.515625 0 
z
" id="DejaVuSans-Oblique-108"/>
     </defs>
     <g transform="translate(358.235 489.928866)scale(0.28 -0.28)">
      <use transform="translate(0 0.578125)" xlink:href="#DejaVuSans-124"/>
      <use transform="translate(33.691406 0.578125)" xlink:href="#DejaVuSans-Oblique-116"/>
      <use transform="translate(72.900391 -15.828125)scale(0.7)" xlink:href="#DejaVuSans-Oblique-112"/>
      <use transform="translate(117.333984 -15.828125)scale(0.7)" xlink:href="#DejaVuSans-Oblique-114"/>
      <use transform="translate(146.113281 -15.828125)scale(0.7)" xlink:href="#DejaVuSans-Oblique-101"/>
      <use transform="translate(189.179688 -15.828125)scale(0.7)" xlink:href="#DejaVuSans-Oblique-100"/>
      <use transform="translate(255.830078 0.578125)" xlink:href="#DejaVuSans-8722"/>
      <use transform="translate(359.101562 0.578125)" xlink:href="#DejaVuSans-Oblique-116"/>
      <use transform="translate(398.310547 -15.828125)scale(0.7)" xlink:href="#DejaVuSans-Oblique-97"/>
      <use transform="translate(441.206055 -15.828125)scale(0.7)" xlink:href="#DejaVuSans-Oblique-99"/>
      <use transform="translate(479.692383 -15.828125)scale(0.7)" xlink:href="#DejaVuSans-Oblique-116"/>
      <use transform="translate(507.138672 -15.828125)scale(0.7)" xlink:href="#DejaVuSans-Oblique-117"/>
      <use transform="translate(551.503906 -15.828125)scale(0.7)" xlink:href="#DejaVuSans-Oblique-97"/>
      <use transform="translate(594.399414 -15.828125)scale(0.7)" xlink:href="#DejaVuSans-Oblique-108"/>
      <use transform="translate(616.582031 0.578125)" xlink:href="#DejaVuSans-124"/>
     </g>
    </g>
   </g>
   <g id="matplotlib.axis_2">
    <g id="ytick_1">
     <g id="line2d_15">
      <defs>
       <path d="M 0 0 
L -12 0 
" id="m1bb4264947" style="stroke:#000000;stroke-width:0.8;"/>
      </defs>
      <g>
       <use style="stroke:#000000;stroke-width:0.8;" x="84.24" xlink:href="#m1bb4264947" y="425.641366"/>
      </g>
     </g>
     <g id="text_5">
      <!-- 0.0 -->
      <g transform="translate(30.5725 434.759491)scale(0.24 -0.24)">
       <use xlink:href="#DejaVuSans-48"/>
       <use x="63.623047" xlink:href="#DejaVuSans-46"/>
       <use x="95.410156" xlink:href="#DejaVuSans-48"/>
      </g>
     </g>
    </g>
    <g id="ytick_2">
     <g id="line2d_16">
      <g>
       <use style="stroke:#000000;stroke-width:0.8;" x="84.24" xlink:href="#m1bb4264947" y="352.612535"/>
      </g>
     </g>
     <g id="text_6">
      <!-- 0.2 -->
      <defs>
       <path d="M 19.1875 8.296875 
L 53.609375 8.296875 
L 53.609375 0 
L 7.328125 0 
L 7.328125 8.296875 
Q 12.9375 14.109375 22.625 23.890625 
Q 32.328125 33.6875 34.8125 36.53125 
Q 39.546875 41.84375 41.421875 45.53125 
Q 43.3125 49.21875 43.3125 52.78125 
Q 43.3125 58.59375 39.234375 62.25 
Q 35.15625 65.921875 28.609375 65.921875 
Q 23.96875 65.921875 18.8125 64.3125 
Q 13.671875 62.703125 7.8125 59.421875 
L 7.8125 69.390625 
Q 13.765625 71.78125 18.9375 73 
Q 24.125 74.21875 28.421875 74.21875 
Q 39.75 74.21875 46.484375 68.546875 
Q 53.21875 62.890625 53.21875 53.421875 
Q 53.21875 48.921875 51.53125 44.890625 
Q 49.859375 40.875 45.40625 35.40625 
Q 44.1875 33.984375 37.640625 27.21875 
Q 31.109375 20.453125 19.1875 8.296875 
z
" id="DejaVuSans-50"/>
      </defs>
      <g transform="translate(30.5725 361.73066)scale(0.24 -0.24)">
       <use xlink:href="#DejaVuSans-48"/>
       <use x="63.623047" xlink:href="#DejaVuSans-46"/>
       <use x="95.410156" xlink:href="#DejaVuSans-50"/>
      </g>
     </g>
    </g>
    <g id="ytick_3">
     <g id="line2d_17">
      <g>
       <use style="stroke:#000000;stroke-width:0.8;" x="84.24" xlink:href="#m1bb4264947" y="279.583703"/>
      </g>
     </g>
     <g id="text_7">
      <!-- 0.4 -->
      <defs>
       <path d="M 37.796875 64.3125 
L 12.890625 25.390625 
L 37.796875 25.390625 
z
M 35.203125 72.90625 
L 47.609375 72.90625 
L 47.609375 25.390625 
L 58.015625 25.390625 
L 58.015625 17.1875 
L 47.609375 17.1875 
L 47.609375 0 
L 37.796875 0 
L 37.796875 17.1875 
L 4.890625 17.1875 
L 4.890625 26.703125 
z
" id="DejaVuSans-52"/>
      </defs>
      <g transform="translate(30.5725 288.701828)scale(0.24 -0.24)">
       <use xlink:href="#DejaVuSans-48"/>
       <use x="63.623047" xlink:href="#DejaVuSans-46"/>
       <use x="95.410156" xlink:href="#DejaVuSans-52"/>
      </g>
     </g>
    </g>
    <g id="ytick_4">
     <g id="line2d_18">
      <g>
       <use style="stroke:#000000;stroke-width:0.8;" x="84.24" xlink:href="#m1bb4264947" y="206.554871"/>
      </g>
     </g>
     <g id="text_8">
      <!-- 0.6 -->
      <defs>
       <path d="M 33.015625 40.375 
Q 26.375 40.375 22.484375 35.828125 
Q 18.609375 31.296875 18.609375 23.390625 
Q 18.609375 15.53125 22.484375 10.953125 
Q 26.375 6.390625 33.015625 6.390625 
Q 39.65625 6.390625 43.53125 10.953125 
Q 47.40625 15.53125 47.40625 23.390625 
Q 47.40625 31.296875 43.53125 35.828125 
Q 39.65625 40.375 33.015625 40.375 
z
M 52.59375 71.296875 
L 52.59375 62.3125 
Q 48.875 64.0625 45.09375 64.984375 
Q 41.3125 65.921875 37.59375 65.921875 
Q 27.828125 65.921875 22.671875 59.328125 
Q 17.53125 52.734375 16.796875 39.40625 
Q 19.671875 43.65625 24.015625 45.921875 
Q 28.375 48.1875 33.59375 48.1875 
Q 44.578125 48.1875 50.953125 41.515625 
Q 57.328125 34.859375 57.328125 23.390625 
Q 57.328125 12.15625 50.6875 5.359375 
Q 44.046875 -1.421875 33.015625 -1.421875 
Q 20.359375 -1.421875 13.671875 8.265625 
Q 6.984375 17.96875 6.984375 36.375 
Q 6.984375 53.65625 15.1875 63.9375 
Q 23.390625 74.21875 37.203125 74.21875 
Q 40.921875 74.21875 44.703125 73.484375 
Q 48.484375 72.75 52.59375 71.296875 
z
" id="DejaVuSans-54"/>
      </defs>
      <g transform="translate(30.5725 215.672996)scale(0.24 -0.24)">
       <use xlink:href="#DejaVuSans-48"/>
       <use x="63.623047" xlink:href="#DejaVuSans-46"/>
       <use x="95.410156" xlink:href="#DejaVuSans-54"/>
      </g>
     </g>
    </g>
    <g id="ytick_5">
     <g id="line2d_19">
      <g>
       <use style="stroke:#000000;stroke-width:0.8;" x="84.24" xlink:href="#m1bb4264947" y="133.52604"/>
      </g>
     </g>
     <g id="text_9">
      <!-- 0.8 -->
      <defs>
       <path d="M 31.78125 34.625 
Q 24.75 34.625 20.71875 30.859375 
Q 16.703125 27.09375 16.703125 20.515625 
Q 16.703125 13.921875 20.71875 10.15625 
Q 24.75 6.390625 31.78125 6.390625 
Q 38.8125 6.390625 42.859375 10.171875 
Q 46.921875 13.96875 46.921875 20.515625 
Q 46.921875 27.09375 42.890625 30.859375 
Q 38.875 34.625 31.78125 34.625 
z
M 21.921875 38.8125 
Q 15.578125 40.375 12.03125 44.71875 
Q 8.5 49.078125 8.5 55.328125 
Q 8.5 64.0625 14.71875 69.140625 
Q 20.953125 74.21875 31.78125 74.21875 
Q 42.671875 74.21875 48.875 69.140625 
Q 55.078125 64.0625 55.078125 55.328125 
Q 55.078125 49.078125 51.53125 44.71875 
Q 48 40.375 41.703125 38.8125 
Q 48.828125 37.15625 52.796875 32.3125 
Q 56.78125 27.484375 56.78125 20.515625 
Q 56.78125 9.90625 50.3125 4.234375 
Q 43.84375 -1.421875 31.78125 -1.421875 
Q 19.734375 -1.421875 13.25 4.234375 
Q 6.78125 9.90625 6.78125 20.515625 
Q 6.78125 27.484375 10.78125 32.3125 
Q 14.796875 37.15625 21.921875 38.8125 
z
M 18.3125 54.390625 
Q 18.3125 48.734375 21.84375 45.5625 
Q 25.390625 42.390625 31.78125 42.390625 
Q 38.140625 42.390625 41.71875 45.5625 
Q 45.3125 48.734375 45.3125 54.390625 
Q 45.3125 60.0625 41.71875 63.234375 
Q 38.140625 66.40625 31.78125 66.40625 
Q 25.390625 66.40625 21.84375 63.234375 
Q 18.3125 60.0625 18.3125 54.390625 
z
" id="DejaVuSans-56"/>
      </defs>
      <g transform="translate(30.5725 142.644165)scale(0.24 -0.24)">
       <use xlink:href="#DejaVuSans-48"/>
       <use x="63.623047" xlink:href="#DejaVuSans-46"/>
       <use x="95.410156" xlink:href="#DejaVuSans-56"/>
      </g>
     </g>
    </g>
    <g id="ytick_6">
     <g id="line2d_20">
      <g>
       <use style="stroke:#000000;stroke-width:0.8;" x="84.24" xlink:href="#m1bb4264947" y="60.497208"/>
      </g>
     </g>
     <g id="text_10">
      <!-- 1.0 -->
      <g transform="translate(30.5725 69.615333)scale(0.24 -0.24)">
       <use xlink:href="#DejaVuSans-49"/>
       <use x="63.623047" xlink:href="#DejaVuSans-46"/>
       <use x="95.410156" xlink:href="#DejaVuSans-48"/>
      </g>
     </g>
    </g>
    <g id="ytick_7">
     <g id="line2d_21">
      <defs>
       <path d="M 0 0 
L -8 0 
" id="maea555bcf2" style="stroke:#000000;stroke-width:0.6;"/>
      </defs>
      <g>
       <use style="stroke:#000000;stroke-width:0.6;" x="84.24" xlink:href="#maea555bcf2" y="425.641366"/>
      </g>
     </g>
    </g>
    <g id="ytick_8">
     <g id="line2d_22">
      <g>
       <use style="stroke:#000000;stroke-width:0.6;" x="84.24" xlink:href="#maea555bcf2" y="407.384158"/>
      </g>
     </g>
    </g>
    <g id="ytick_9">
     <g id="line2d_23">
      <g>
       <use style="stroke:#000000;stroke-width:0.6;" x="84.24" xlink:href="#maea555bcf2" y="389.12695"/>
      </g>
     </g>
    </g>
    <g id="ytick_10">
     <g id="line2d_24">
      <g>
       <use style="stroke:#000000;stroke-width:0.6;" x="84.24" xlink:href="#maea555bcf2" y="370.869743"/>
      </g>
     </g>
    </g>
    <g id="ytick_11">
     <g id="line2d_25">
      <g>
       <use style="stroke:#000000;stroke-width:0.6;" x="84.24" xlink:href="#maea555bcf2" y="352.612535"/>
      </g>
     </g>
    </g>
    <g id="ytick_12">
     <g id="line2d_26">
      <g>
       <use style="stroke:#000000;stroke-width:0.6;" x="84.24" xlink:href="#maea555bcf2" y="334.355327"/>
      </g>
     </g>
    </g>
    <g id="ytick_13">
     <g id="line2d_27">
      <g>
       <use style="stroke:#000000;stroke-width:0.6;" x="84.24" xlink:href="#maea555bcf2" y="316.098119"/>
      </g>
     </g>
    </g>
    <g id="ytick_14">
     <g id="line2d_28">
      <g>
       <use style="stroke:#000000;stroke-width:0.6;" x="84.24" xlink:href="#maea555bcf2" y="297.840911"/>
      </g>
     </g>
    </g>
    <g id="ytick_15">
     <g id="line2d_29">
      <g>
       <use style="stroke:#000000;stroke-width:0.6;" x="84.24" xlink:href="#maea555bcf2" y="279.583703"/>
      </g>
     </g>
    </g>
    <g id="ytick_16">
     <g id="line2d_30">
      <g>
       <use style="stroke:#000000;stroke-width:0.6;" x="84.24" xlink:href="#maea555bcf2" y="261.326495"/>
      </g>
     </g>
    </g>
    <g id="ytick_17">
     <g id="line2d_31">
      <g>
       <use style="stroke:#000000;stroke-width:0.6;" x="84.24" xlink:href="#maea555bcf2" y="243.069287"/>
      </g>
     </g>
    </g>
    <g id="ytick_18">
     <g id="line2d_32">
      <g>
       <use style="stroke:#000000;stroke-width:0.6;" x="84.24" xlink:href="#maea555bcf2" y="224.812079"/>
      </g>
     </g>
    </g>
    <g id="ytick_19">
     <g id="line2d_33">
      <g>
       <use style="stroke:#000000;stroke-width:0.6;" x="84.24" xlink:href="#maea555bcf2" y="206.554871"/>
      </g>
     </g>
    </g>
    <g id="ytick_20">
     <g id="line2d_34">
      <g>
       <use style="stroke:#000000;stroke-width:0.6;" x="84.24" xlink:href="#maea555bcf2" y="188.297663"/>
      </g>
     </g>
    </g>
    <g id="ytick_21">
     <g id="line2d_35">
      <g>
       <use style="stroke:#000000;stroke-width:0.6;" x="84.24" xlink:href="#maea555bcf2" y="170.040455"/>
      </g>
     </g>
    </g>
    <g id="ytick_22">
     <g id="line2d_36">
      <g>
       <use style="stroke:#000000;stroke-width:0.6;" x="84.24" xlink:href="#maea555bcf2" y="151.783248"/>
      </g>
     </g>
    </g>
    <g id="ytick_23">
     <g id="line2d_37">
      <g>
       <use style="stroke:#000000;stroke-width:0.6;" x="84.24" xlink:href="#maea555bcf2" y="133.52604"/>
      </g>
     </g>
    </g>
    <g id="ytick_24">
     <g id="line2d_38">
      <g>
       <use style="stroke:#000000;stroke-width:0.6;" x="84.24" xlink:href="#maea555bcf2" y="115.268832"/>
      </g>
     </g>
    </g>
    <g id="ytick_25">
     <g id="line2d_39">
      <g>
       <use style="stroke:#000000;stroke-width:0.6;" x="84.24" xlink:href="#maea555bcf2" y="97.011624"/>
      </g>
     </g>
    </g>
    <g id="ytick_26">
     <g id="line2d_40">
      <g>
       <use style="stroke:#000000;stroke-width:0.6;" x="84.24" xlink:href="#maea555bcf2" y="78.754416"/>
      </g>
     </g>
    </g>
    <g id="ytick_27">
     <g id="line2d_41">
      <g>
       <use style="stroke:#000000;stroke-width:0.6;" x="84.24" xlink:href="#maea555bcf2" y="60.497208"/>
      </g>
     </g>
    </g>
    <g id="ytick_28">
     <g id="line2d_42">
      <g>
       <use style="stroke:#000000;stroke-width:0.6;" x="84.24" xlink:href="#maea555bcf2" y="42.24"/>
      </g>
     </g>
    </g>
   </g>
   <g id="line2d_43">
    <path clip-path="url(#pd47c06acd1)" d="M 84.24 78.754416 
L 814.51 78.754416 
" style="fill:none;stroke:#ff0000;stroke-dasharray:5.55,2.4;stroke-dashoffset:0;stroke-width:1.5;"/>
   </g>
   <g id="patch_5">
    <path d="M 84.24 425.641366 
L 84.24 42.24 
" style="fill:none;stroke:#000000;stroke-linecap:square;stroke-linejoin:miter;stroke-width:0.8;"/>
   </g>
   <g id="patch_6">
    <path d="M 814.51 425.641366 
L 814.51 42.24 
" style="fill:none;stroke:#000000;stroke-linecap:square;stroke-linejoin:miter;stroke-width:0.8;"/>
   </g>
   <g id="patch_7">
    <path d="M 84.24 425.641366 
L 814.51 425.641366 
" style="fill:none;stroke:#000000;stroke-linecap:square;stroke-linejoin:miter;stroke-width:0.8;"/>
   </g>
   <g id="patch_8">
    <path d="M 84.24 42.24 
L 814.51 42.24 
" style="fill:none;stroke:#000000;stroke-linecap:square;stroke-linejoin:miter;stroke-width:0.8;"/>
   </g>
   <g id="legend_1">
    <g id="patch_9">
     <path d="M 528.936775 413.979366 
L 798.1832 413.979366 
Q 802.848 413.979366 802.848 409.314566 
L 802.848 343.176449 
Q 802.848 338.511649 798.1832 338.511649 
L 528.936775 338.511649 
Q 524.271975 338.511649 524.271975 343.176449 
L 524.271975 409.314566 
Q 524.271975 413.979366 528.936775 413.979366 
z
" style="fill:#ffffff;opacity:0.8;stroke:#cccccc;stroke-linejoin:miter;"/>
    </g>
    <g id="patch_10">
     <path d="M 533.601575 365.563844 
L 580.249575 365.563844 
L 580.249575 349.237044 
L 533.601575 349.237044 
z
" style="fill:none;stroke:#000000;stroke-linejoin:miter;stroke-width:2;"/>
    </g>
    <g id="text_11">
     <!-- Shifted Windows -->
     <defs>
      <path d="M 53.515625 70.515625 
L 53.515625 60.890625 
Q 47.90625 63.578125 42.921875 64.890625 
Q 37.9375 66.21875 33.296875 66.21875 
Q 25.25 66.21875 20.875 63.09375 
Q 16.5 59.96875 16.5 54.203125 
Q 16.5 49.359375 19.40625 46.890625 
Q 22.3125 44.4375 30.421875 42.921875 
L 36.375 41.703125 
Q 47.40625 39.59375 52.65625 34.296875 
Q 57.90625 29 57.90625 20.125 
Q 57.90625 9.515625 50.796875 4.046875 
Q 43.703125 -1.421875 29.984375 -1.421875 
Q 24.8125 -1.421875 18.96875 -0.25 
Q 13.140625 0.921875 6.890625 3.21875 
L 6.890625 13.375 
Q 12.890625 10.015625 18.65625 8.296875 
Q 24.421875 6.59375 29.984375 6.59375 
Q 38.421875 6.59375 43.015625 9.90625 
Q 47.609375 13.234375 47.609375 19.390625 
Q 47.609375 24.75 44.3125 27.78125 
Q 41.015625 30.8125 33.5 32.328125 
L 27.484375 33.5 
Q 16.453125 35.6875 11.515625 40.375 
Q 6.59375 45.0625 6.59375 53.421875 
Q 6.59375 63.09375 13.40625 68.65625 
Q 20.21875 74.21875 32.171875 74.21875 
Q 37.3125 74.21875 42.625 73.28125 
Q 47.953125 72.359375 53.515625 70.515625 
z
" id="DejaVuSans-83"/>
      <path d="M 54.890625 33.015625 
L 54.890625 0 
L 45.90625 0 
L 45.90625 32.71875 
Q 45.90625 40.484375 42.875 44.328125 
Q 39.84375 48.1875 33.796875 48.1875 
Q 26.515625 48.1875 22.3125 43.546875 
Q 18.109375 38.921875 18.109375 30.90625 
L 18.109375 0 
L 9.078125 0 
L 9.078125 75.984375 
L 18.109375 75.984375 
L 18.109375 46.1875 
Q 21.34375 51.125 25.703125 53.5625 
Q 30.078125 56 35.796875 56 
Q 45.21875 56 50.046875 50.171875 
Q 54.890625 44.34375 54.890625 33.015625 
z
" id="DejaVuSans-104"/>
      <path d="M 9.421875 54.6875 
L 18.40625 54.6875 
L 18.40625 0 
L 9.421875 0 
z
M 9.421875 75.984375 
L 18.40625 75.984375 
L 18.40625 64.59375 
L 9.421875 64.59375 
z
" id="DejaVuSans-105"/>
      <path d="M 37.109375 75.984375 
L 37.109375 68.5 
L 28.515625 68.5 
Q 23.6875 68.5 21.796875 66.546875 
Q 19.921875 64.59375 19.921875 59.515625 
L 19.921875 54.6875 
L 34.71875 54.6875 
L 34.71875 47.703125 
L 19.921875 47.703125 
L 19.921875 0 
L 10.890625 0 
L 10.890625 47.703125 
L 2.296875 47.703125 
L 2.296875 54.6875 
L 10.890625 54.6875 
L 10.890625 58.5 
Q 10.890625 67.625 15.140625 71.796875 
Q 19.390625 75.984375 28.609375 75.984375 
z
" id="DejaVuSans-102"/>
      <path d="M 18.3125 70.21875 
L 18.3125 54.6875 
L 36.8125 54.6875 
L 36.8125 47.703125 
L 18.3125 47.703125 
L 18.3125 18.015625 
Q 18.3125 11.328125 20.140625 9.421875 
Q 21.96875 7.515625 27.59375 7.515625 
L 36.8125 7.515625 
L 36.8125 0 
L 27.59375 0 
Q 17.1875 0 13.234375 3.875 
Q 9.28125 7.765625 9.28125 18.015625 
L 9.28125 47.703125 
L 2.6875 47.703125 
L 2.6875 54.6875 
L 9.28125 54.6875 
L 9.28125 70.21875 
z
" id="DejaVuSans-116"/>
      <path d="M 56.203125 29.59375 
L 56.203125 25.203125 
L 14.890625 25.203125 
Q 15.484375 15.921875 20.484375 11.0625 
Q 25.484375 6.203125 34.421875 6.203125 
Q 39.59375 6.203125 44.453125 7.46875 
Q 49.3125 8.734375 54.109375 11.28125 
L 54.109375 2.78125 
Q 49.265625 0.734375 44.1875 -0.34375 
Q 39.109375 -1.421875 33.890625 -1.421875 
Q 20.796875 -1.421875 13.15625 6.1875 
Q 5.515625 13.8125 5.515625 26.8125 
Q 5.515625 40.234375 12.765625 48.109375 
Q 20.015625 56 32.328125 56 
Q 43.359375 56 49.78125 48.890625 
Q 56.203125 41.796875 56.203125 29.59375 
z
M 47.21875 32.234375 
Q 47.125 39.59375 43.09375 43.984375 
Q 39.0625 48.390625 32.421875 48.390625 
Q 24.90625 48.390625 20.390625 44.140625 
Q 15.875 39.890625 15.1875 32.171875 
z
" id="DejaVuSans-101"/>
      <path d="M 45.40625 46.390625 
L 45.40625 75.984375 
L 54.390625 75.984375 
L 54.390625 0 
L 45.40625 0 
L 45.40625 8.203125 
Q 42.578125 3.328125 38.25 0.953125 
Q 33.9375 -1.421875 27.875 -1.421875 
Q 17.96875 -1.421875 11.734375 6.484375 
Q 5.515625 14.40625 5.515625 27.296875 
Q 5.515625 40.1875 11.734375 48.09375 
Q 17.96875 56 27.875 56 
Q 33.9375 56 38.25 53.625 
Q 42.578125 51.265625 45.40625 46.390625 
z
M 14.796875 27.296875 
Q 14.796875 17.390625 18.875 11.75 
Q 22.953125 6.109375 30.078125 6.109375 
Q 37.203125 6.109375 41.296875 11.75 
Q 45.40625 17.390625 45.40625 27.296875 
Q 45.40625 37.203125 41.296875 42.84375 
Q 37.203125 48.484375 30.078125 48.484375 
Q 22.953125 48.484375 18.875 42.84375 
Q 14.796875 37.203125 14.796875 27.296875 
z
" id="DejaVuSans-100"/>
      <path id="DejaVuSans-32"/>
      <path d="M 3.328125 72.90625 
L 13.28125 72.90625 
L 28.609375 11.28125 
L 43.890625 72.90625 
L 54.984375 72.90625 
L 70.3125 11.28125 
L 85.59375 72.90625 
L 95.609375 72.90625 
L 77.296875 0 
L 64.890625 0 
L 49.515625 63.28125 
L 33.984375 0 
L 21.578125 0 
z
" id="DejaVuSans-87"/>
      <path d="M 54.890625 33.015625 
L 54.890625 0 
L 45.90625 0 
L 45.90625 32.71875 
Q 45.90625 40.484375 42.875 44.328125 
Q 39.84375 48.1875 33.796875 48.1875 
Q 26.515625 48.1875 22.3125 43.546875 
Q 18.109375 38.921875 18.109375 30.90625 
L 18.109375 0 
L 9.078125 0 
L 9.078125 54.6875 
L 18.109375 54.6875 
L 18.109375 46.1875 
Q 21.34375 51.125 25.703125 53.5625 
Q 30.078125 56 35.796875 56 
Q 45.21875 56 50.046875 50.171875 
Q 54.890625 44.34375 54.890625 33.015625 
z
" id="DejaVuSans-110"/>
      <path d="M 30.609375 48.390625 
Q 23.390625 48.390625 19.1875 42.75 
Q 14.984375 37.109375 14.984375 27.296875 
Q 14.984375 17.484375 19.15625 11.84375 
Q 23.34375 6.203125 30.609375 6.203125 
Q 37.796875 6.203125 41.984375 11.859375 
Q 46.1875 17.53125 46.1875 27.296875 
Q 46.1875 37.015625 41.984375 42.703125 
Q 37.796875 48.390625 30.609375 48.390625 
z
M 30.609375 56 
Q 42.328125 56 49.015625 48.375 
Q 55.71875 40.765625 55.71875 27.296875 
Q 55.71875 13.875 49.015625 6.21875 
Q 42.328125 -1.421875 30.609375 -1.421875 
Q 18.84375 -1.421875 12.171875 6.21875 
Q 5.515625 13.875 5.515625 27.296875 
Q 5.515625 40.765625 12.171875 48.375 
Q 18.84375 56 30.609375 56 
z
" id="DejaVuSans-111"/>
      <path d="M 4.203125 54.6875 
L 13.1875 54.6875 
L 24.421875 12.015625 
L 35.59375 54.6875 
L 46.1875 54.6875 
L 57.421875 12.015625 
L 68.609375 54.6875 
L 77.59375 54.6875 
L 63.28125 0 
L 52.6875 0 
L 40.921875 44.828125 
L 29.109375 0 
L 18.5 0 
z
" id="DejaVuSans-119"/>
      <path d="M 44.28125 53.078125 
L 44.28125 44.578125 
Q 40.484375 46.53125 36.375 47.5 
Q 32.28125 48.484375 27.875 48.484375 
Q 21.1875 48.484375 17.84375 46.4375 
Q 14.5 44.390625 14.5 40.28125 
Q 14.5 37.15625 16.890625 35.375 
Q 19.28125 33.59375 26.515625 31.984375 
L 29.59375 31.296875 
Q 39.15625 29.25 43.1875 25.515625 
Q 47.21875 21.78125 47.21875 15.09375 
Q 47.21875 7.46875 41.1875 3.015625 
Q 35.15625 -1.421875 24.609375 -1.421875 
Q 20.21875 -1.421875 15.453125 -0.5625 
Q 10.6875 0.296875 5.421875 2 
L 5.421875 11.28125 
Q 10.40625 8.6875 15.234375 7.390625 
Q 20.0625 6.109375 24.8125 6.109375 
Q 31.15625 6.109375 34.5625 8.28125 
Q 37.984375 10.453125 37.984375 14.40625 
Q 37.984375 18.0625 35.515625 20.015625 
Q 33.0625 21.96875 24.703125 23.78125 
L 21.578125 24.515625 
Q 13.234375 26.265625 9.515625 29.90625 
Q 5.8125 33.546875 5.8125 39.890625 
Q 5.8125 47.609375 11.28125 51.796875 
Q 16.75 56 26.8125 56 
Q 31.78125 56 36.171875 55.265625 
Q 40.578125 54.546875 44.28125 53.078125 
z
" id="DejaVuSans-115"/>
     </defs>
     <g transform="translate(598.908775 365.563844)scale(0.23324 -0.23324)">
      <use xlink:href="#DejaVuSans-83"/>
      <use x="63.476562" xlink:href="#DejaVuSans-104"/>
      <use x="126.855469" xlink:href="#DejaVuSans-105"/>
      <use x="154.638672" xlink:href="#DejaVuSans-102"/>
      <use x="189.828125" xlink:href="#DejaVuSans-116"/>
      <use x="229.037109" xlink:href="#DejaVuSans-101"/>
      <use x="290.560547" xlink:href="#DejaVuSans-100"/>
      <use x="354.037109" xlink:href="#DejaVuSans-32"/>
      <use x="385.824219" xlink:href="#DejaVuSans-87"/>
      <use x="484.669922" xlink:href="#DejaVuSans-105"/>
      <use x="512.453125" xlink:href="#DejaVuSans-110"/>
      <use x="575.832031" xlink:href="#DejaVuSans-100"/>
      <use x="639.308594" xlink:href="#DejaVuSans-111"/>
      <use x="700.490234" xlink:href="#DejaVuSans-119"/>
      <use x="782.277344" xlink:href="#DejaVuSans-115"/>
     </g>
    </g>
    <g id="patch_11">
     <path d="M 533.601575 399.799103 
L 580.249575 399.799103 
L 580.249575 383.472303 
L 533.601575 383.472303 
z
" style="fill:none;stroke:#008000;stroke-dasharray:5.55,2.4;stroke-dashoffset:0;stroke-linejoin:miter;stroke-width:1.5;"/>
    </g>
    <g id="text_12">
     <!-- Single Window -->
     <defs>
      <path d="M 45.40625 27.984375 
Q 45.40625 37.75 41.375 43.109375 
Q 37.359375 48.484375 30.078125 48.484375 
Q 22.859375 48.484375 18.828125 43.109375 
Q 14.796875 37.75 14.796875 27.984375 
Q 14.796875 18.265625 18.828125 12.890625 
Q 22.859375 7.515625 30.078125 7.515625 
Q 37.359375 7.515625 41.375 12.890625 
Q 45.40625 18.265625 45.40625 27.984375 
z
M 54.390625 6.78125 
Q 54.390625 -7.171875 48.1875 -13.984375 
Q 42 -20.796875 29.203125 -20.796875 
Q 24.46875 -20.796875 20.265625 -20.09375 
Q 16.0625 -19.390625 12.109375 -17.921875 
L 12.109375 -9.1875 
Q 16.0625 -11.328125 19.921875 -12.34375 
Q 23.78125 -13.375 27.78125 -13.375 
Q 36.625 -13.375 41.015625 -8.765625 
Q 45.40625 -4.15625 45.40625 5.171875 
L 45.40625 9.625 
Q 42.625 4.78125 38.28125 2.390625 
Q 33.9375 0 27.875 0 
Q 17.828125 0 11.671875 7.65625 
Q 5.515625 15.328125 5.515625 27.984375 
Q 5.515625 40.671875 11.671875 48.328125 
Q 17.828125 56 27.875 56 
Q 33.9375 56 38.28125 53.609375 
Q 42.625 51.21875 45.40625 46.390625 
L 45.40625 54.6875 
L 54.390625 54.6875 
z
" id="DejaVuSans-103"/>
      <path d="M 9.421875 75.984375 
L 18.40625 75.984375 
L 18.40625 0 
L 9.421875 0 
z
" id="DejaVuSans-108"/>
     </defs>
     <g transform="translate(598.908775 399.799103)scale(0.23324 -0.23324)">
      <use xlink:href="#DejaVuSans-83"/>
      <use x="63.476562" xlink:href="#DejaVuSans-105"/>
      <use x="91.259766" xlink:href="#DejaVuSans-110"/>
      <use x="154.638672" xlink:href="#DejaVuSans-103"/>
      <use x="218.115234" xlink:href="#DejaVuSans-108"/>
      <use x="245.898438" xlink:href="#DejaVuSans-101"/>
      <use x="307.421875" xlink:href="#DejaVuSans-32"/>
      <use x="339.208984" xlink:href="#DejaVuSans-87"/>
      <use x="438.054688" xlink:href="#DejaVuSans-105"/>
      <use x="465.837891" xlink:href="#DejaVuSans-110"/>
      <use x="529.216797" xlink:href="#DejaVuSans-100"/>
      <use x="592.693359" xlink:href="#DejaVuSans-111"/>
      <use x="653.875" xlink:href="#DejaVuSans-119"/>
     </g>
    </g>
   </g>
  </g>
 </g>
 <defs>
  <clipPath id="pd47c06acd1">
   <rect height="383.401366" width="730.27" x="84.24" y="42.24"/>
  </clipPath>
 </defs>
</svg>
